<svg width="317" height="297" viewBox="0 0 317 297" fill="none" xmlns="http://www.w3.org/2000/svg">
<path d="M24.5715 271.488H6.85417C6.16444 271.488 5.81959 271.143 5.81959 270.453V262.306C5.81959 262.004 5.9166 261.745 6.11058 261.53C6.30457 261.314 6.55241 261.206 6.85417 261.206C7.15592 261.206 7.41457 261.314 7.63011 261.53C7.84565 261.745 7.95344 262.004 7.95344 262.306V269.354H24.5715C24.8733 269.354 25.1211 269.462 25.3151 269.677C25.5091 269.893 25.6061 270.151 25.6061 270.453C25.6061 271.143 25.2612 271.488 24.5715 271.488ZM24.9595 252.736H6.72485C6.03512 252.736 5.69027 252.369 5.69027 251.636C5.69027 250.947 6.03512 250.602 6.72485 250.602H24.9595C25.2612 250.602 25.5199 250.699 25.7354 250.893C25.951 251.087 26.0587 251.335 26.0587 251.636C26.0587 251.981 25.951 252.251 25.7354 252.445C25.5199 252.639 25.2612 252.736 24.9595 252.736ZM5.81959 294.96V276.143C5.81959 275.798 5.90579 275.54 6.07822 275.367C6.37998 275.152 6.63863 275.044 6.85417 275.044H21.7911C22.0928 275.044 22.3515 275.141 22.567 275.335C22.7825 275.529 22.8903 275.798 22.8903 276.143C22.8903 276.445 22.7825 276.693 22.567 276.887C22.3515 277.081 22.0928 277.178 21.7911 277.178H7.95344V294.96C7.95344 295.262 7.84565 295.509 7.63011 295.703C7.41457 295.897 7.15592 295.994 6.85417 295.994C6.16444 295.994 5.81959 295.65 5.81959 294.96ZM1.03461 295.994C0.344884 295.994 3.05176e-05 295.65 3.05176e-05 294.96V257.391C3.05176e-05 256.702 0.344884 256.357 1.03461 256.357H21.3384C22.0712 256.357 22.4377 256.702 22.4377 257.391C22.4377 257.693 22.3407 257.952 22.1467 258.167C21.9527 258.383 21.6833 258.491 21.3384 258.491H2.13388V294.96C2.13388 295.262 2.02609 295.509 1.81055 295.703C1.59501 295.897 1.33637 295.994 1.03461 295.994ZM25.3474 256.292C25.6492 256.378 25.8755 256.562 26.0264 256.842C26.1773 257.122 26.188 257.434 26.0587 257.779C25.9294 258.297 25.563 258.555 24.9595 258.555C24.4853 258.426 24.162 258.221 23.9896 257.941C23.8171 257.661 23.774 257.37 23.8602 257.068V257.003C24.0758 256.486 24.4422 256.227 24.9595 256.227C25.1319 256.227 25.2612 256.249 25.3474 256.292ZM35.6933 274.333V257.715C35.6933 257.413 35.7903 257.154 35.9843 256.939C36.1783 256.723 36.4477 256.615 36.7926 256.615C37.0943 256.615 37.3422 256.723 37.5362 256.939C37.7302 257.154 37.8272 257.413 37.8272 257.715V274.333C37.8272 275.583 37.9565 276.844 38.2151 278.115C38.4738 279.387 38.8618 280.616 39.3791 281.801C39.8964 282.987 40.5645 284.075 41.3836 285.067C42.2026 286.058 43.151 286.899 44.2287 287.588C44.4874 287.761 44.6598 287.987 44.746 288.267C44.8322 288.548 44.7891 288.817 44.6167 289.076C44.4442 289.377 44.1425 289.528 43.7114 289.528C43.4528 289.528 43.2588 289.485 43.1294 289.399C40.8016 287.976 38.9803 285.918 37.6655 283.224C36.3507 280.53 35.6933 277.566 35.6933 274.333ZM30.0031 274.203V252.542C30.0031 252.24 30.1001 251.981 30.2941 251.766C30.4881 251.55 30.7575 251.442 31.1023 251.442C31.4041 251.442 31.652 251.55 31.846 251.766C32.0399 251.981 32.137 252.24 32.137 252.542V274.203C32.137 276.919 32.5357 279.473 33.3332 281.866C34.1307 284.258 35.2084 286.371 36.5663 288.203C37.9242 290.035 39.5299 291.522 41.3836 292.664C43.2372 293.807 45.2202 294.464 47.3325 294.637V290.11C47.3325 289.808 47.4295 289.55 47.6234 289.334C47.8174 289.119 48.0653 289.011 48.3671 289.011C50.2638 289.011 51.8803 288.537 53.2167 287.588C54.553 286.64 55.6415 285.455 56.4821 284.032C57.3227 282.609 57.937 281.036 58.325 279.312C58.7129 277.587 58.9069 275.928 58.9069 274.333V256.292C58.9069 255.947 59.0147 255.678 59.2302 255.484C59.4458 255.29 59.7044 255.193 60.0062 255.193C60.6959 255.193 61.0407 255.559 61.0407 256.292V274.333C61.0407 276.143 60.8252 277.997 60.3942 279.894C59.9631 281.79 59.2733 283.525 58.325 285.099C57.3766 286.672 56.1696 288.009 54.7039 289.108C53.2383 290.207 51.4924 290.865 49.4663 291.08V295.736C49.4663 296.038 49.3585 296.296 49.143 296.512C48.9275 296.727 48.6688 296.835 48.3671 296.835C45.4357 296.835 42.8385 296.145 40.5753 294.766C38.3121 293.386 36.3938 291.608 34.8204 289.431C33.247 287.254 32.0507 284.819 31.2317 282.124C30.4126 279.43 30.0031 276.79 30.0031 274.203ZM53.0227 294.378C54.9626 293.645 56.6545 292.578 58.0987 291.177C59.5428 289.776 60.7498 288.181 61.7197 286.392C62.6896 284.603 63.4225 282.696 63.9182 280.67C64.4139 278.644 64.6618 276.661 64.6618 274.721V252.606C64.6618 252.305 64.7588 252.046 64.9528 251.83C65.1468 251.615 65.3946 251.507 65.6964 251.507C65.9982 251.507 66.2568 251.615 66.4723 251.83C66.6879 252.046 66.7957 252.305 66.7957 252.606V274.721C66.7957 276.833 66.5155 279.01 65.9551 281.252C65.3947 283.493 64.5756 285.605 63.4979 287.588C62.4202 289.571 61.0731 291.339 59.4566 292.891C57.84 294.443 55.9541 295.585 53.7987 296.318C53.0658 296.447 52.6132 296.253 52.4408 295.736C52.3114 295.434 52.3114 295.154 52.4408 294.895C52.5701 294.637 52.7641 294.464 53.0227 294.378ZM60.3942 251.507C60.6959 251.636 60.9114 251.841 61.0407 252.121C61.1701 252.402 61.1917 252.693 61.1054 252.994V253.059C60.8899 253.576 60.5235 253.835 60.0062 253.835C59.532 253.706 59.2087 253.49 59.0362 253.188C58.8638 252.887 58.8207 252.585 58.9069 252.283V252.218C59.1225 251.701 59.4889 251.442 60.0062 251.442C60.0924 251.442 60.157 251.453 60.2001 251.475C60.2433 251.496 60.3079 251.507 60.3942 251.507ZM76.5596 294.507C76.5596 294.205 76.6674 293.958 76.8829 293.764C77.0984 293.57 77.3571 293.473 77.6588 293.473H93.5657C94.2554 293.473 94.6002 293.817 94.6002 294.507C94.6002 294.809 94.5033 295.068 94.3093 295.283C94.1153 295.499 93.8674 295.606 93.5657 295.606H77.6588C77.3571 295.606 77.0984 295.499 76.8829 295.283C76.6674 295.068 76.5596 294.809 76.5596 294.507ZM90.0092 289.981H71.71C71.0202 289.981 70.6754 289.636 70.6754 288.946V251.507C70.6754 250.817 71.0202 250.473 71.71 250.473C72.4428 250.473 72.8092 250.817 72.8092 251.507V287.847H90.0092C90.3541 287.847 90.6235 287.955 90.8175 288.17C91.0115 288.386 91.1085 288.645 91.1085 288.946C91.1085 289.636 90.7421 289.981 90.0092 289.981ZM76.4949 283.773V257.327C76.4949 256.637 76.8398 256.292 77.5295 256.292C77.8313 256.292 78.0899 256.389 78.3055 256.583C78.521 256.777 78.6288 257.025 78.6288 257.327V283.773C78.6288 284.075 78.521 284.323 78.3055 284.517C78.0899 284.711 77.8313 284.808 77.5295 284.808C76.8398 284.808 76.4949 284.463 76.4949 283.773ZM93.6303 290.11C93.1561 289.981 92.8328 289.765 92.6604 289.464C92.488 289.162 92.4448 288.86 92.531 288.558V288.494C92.7466 287.976 93.113 287.718 93.6303 287.718C93.7165 287.718 93.7812 287.729 93.8243 287.75C93.8674 287.772 93.9321 287.782 94.0183 287.782C94.3631 287.869 94.6002 288.063 94.7296 288.364C94.8589 288.666 94.8589 288.968 94.7296 289.27V289.334C94.6002 289.852 94.2338 290.11 93.6303 290.11ZM103.912 294.507C103.912 294.205 104.019 293.958 104.235 293.764C104.45 293.57 104.709 293.473 105.011 293.473H120.918C121.607 293.473 121.952 293.817 121.952 294.507C121.952 294.809 121.855 295.068 121.661 295.283C121.467 295.499 121.219 295.606 120.918 295.606H105.011C104.709 295.606 104.45 295.499 104.235 295.283C104.019 295.068 103.912 294.809 103.912 294.507ZM117.361 289.981H99.0619C98.3722 289.981 98.0273 289.636 98.0273 288.946V251.507C98.0273 250.817 98.3722 250.473 99.0619 250.473C99.7947 250.473 100.161 250.817 100.161 251.507V287.847H117.361C117.706 287.847 117.975 287.955 118.169 288.17C118.363 288.386 118.46 288.645 118.46 288.946C118.46 289.636 118.094 289.981 117.361 289.981ZM103.847 283.773V257.327C103.847 256.637 104.192 256.292 104.881 256.292C105.183 256.292 105.442 256.389 105.657 256.583C105.873 256.777 105.981 257.025 105.981 257.327V283.773C105.981 284.075 105.873 284.323 105.657 284.517C105.442 284.711 105.183 284.808 104.881 284.808C104.192 284.808 103.847 284.463 103.847 283.773ZM120.982 290.11C120.508 289.981 120.185 289.765 120.012 289.464C119.84 289.162 119.797 288.86 119.883 288.558V288.494C120.099 287.976 120.465 287.718 120.982 287.718C121.068 287.718 121.133 287.729 121.176 287.75C121.219 287.772 121.284 287.782 121.37 287.782C121.715 287.869 121.952 288.063 122.081 288.364C122.211 288.666 122.211 288.968 122.081 289.27V289.334C121.952 289.852 121.586 290.11 120.982 290.11ZM130.035 271.617C127.664 269.462 126.586 266.897 126.802 263.922C126.802 263.836 126.813 263.62 126.834 263.276C126.856 262.931 126.942 262.51 127.093 262.015C127.244 261.519 127.47 260.991 127.772 260.43C128.073 259.87 128.505 259.331 129.065 258.814C130.444 257.434 132.072 256.594 133.947 256.292C135.822 255.99 137.687 255.839 139.54 255.839C140.144 255.883 141.092 256.001 142.385 256.195C143.679 256.389 144.972 256.853 146.265 257.585C149.498 259.353 151.05 262.112 150.921 265.862C150.834 266.509 150.468 266.832 149.821 266.832C149.477 266.832 149.207 266.724 149.013 266.509C148.819 266.293 148.744 266.034 148.787 265.733C148.873 264.138 148.55 262.823 147.817 261.788C147.429 261.099 146.912 260.527 146.265 260.075C145.618 259.622 144.907 259.245 144.131 258.943C143.355 258.641 142.568 258.415 141.771 258.264C140.974 258.113 140.208 258.016 139.476 257.973C137.924 257.973 136.339 258.081 134.723 258.297C133.106 258.512 131.716 259.18 130.552 260.301C129.733 261.077 129.259 261.853 129.13 262.629C129 263.405 128.936 263.836 128.936 263.922C128.893 265.172 129.065 266.282 129.453 267.252C129.841 268.222 130.444 269.095 131.263 269.871C132.083 270.647 133.063 271.369 134.206 272.037C135.348 272.705 136.63 273.341 138.053 273.945L139.023 274.397C140.704 275.13 142.245 275.831 143.646 276.499C145.047 277.167 146.243 277.868 147.235 278.6C148.356 279.333 149.153 280.152 149.627 281.058C150.231 282.092 150.382 283.17 150.08 284.291C149.951 284.808 149.606 285.067 149.045 285.067C148.614 284.98 148.313 284.819 148.14 284.582C147.968 284.345 147.925 284.075 148.011 283.773C148.356 282.48 147.644 281.295 145.877 280.217C144.11 279.139 141.545 277.846 138.182 276.337L137.212 275.949C136.005 275.389 134.755 274.775 133.462 274.106C132.169 273.438 131.026 272.608 130.035 271.617ZM141.415 296.188H141.351C139.152 296.059 137.094 295.585 135.176 294.766C133.257 293.947 131.608 292.804 130.229 291.339C128.893 289.916 127.89 288.321 127.222 286.554C126.554 284.786 126.263 282.933 126.349 280.993C126.435 280.303 126.823 279.958 127.513 279.958C127.815 280.001 128.063 280.12 128.257 280.314C128.451 280.508 128.526 280.777 128.483 281.122C128.354 284.485 129.453 287.394 131.781 289.852C132.988 291.102 134.41 292.093 136.048 292.826C137.687 293.559 139.476 293.968 141.415 294.055C141.76 294.055 142.03 294.162 142.224 294.378C142.418 294.593 142.493 294.852 142.45 295.154C142.45 295.456 142.342 295.703 142.127 295.897C141.911 296.091 141.674 296.188 141.415 296.188ZM154.412 287.718C152.904 289.313 151.212 290.304 149.336 290.692C147.461 291.08 145.489 291.274 143.42 291.274C142.385 291.231 141.318 291.08 140.219 290.821C139.12 290.563 138.085 290.196 137.115 289.722C136.145 289.248 135.272 288.645 134.497 287.912C133.721 287.179 133.117 286.295 132.686 285.261C132.6 285.002 132.611 284.733 132.718 284.452C132.826 284.172 133.009 283.967 133.268 283.838C133.354 283.838 133.419 283.827 133.462 283.806C133.505 283.784 133.57 283.773 133.656 283.773C134.13 283.773 134.475 283.989 134.691 284.42C135.035 285.282 135.531 285.993 136.178 286.554C136.824 287.114 137.557 287.578 138.376 287.944C139.195 288.31 140.047 288.58 140.93 288.752C141.814 288.925 142.665 289.054 143.485 289.14C144.562 289.14 145.683 289.076 146.847 288.946C148.011 288.817 149.11 288.537 150.145 288.106C151.179 287.675 152.085 287.082 152.861 286.327C153.636 285.573 154.175 284.571 154.477 283.321C154.52 282.243 154.477 281.381 154.348 280.734C154.218 280.088 153.895 279.463 153.378 278.859C152.731 278.126 151.697 277.34 150.274 276.499C148.851 275.658 146.89 274.678 144.39 273.557C142.536 272.738 140.887 271.962 139.443 271.229C137.999 270.496 136.781 269.763 135.79 269.03C133.246 267.134 132.169 265.129 132.557 263.017C132.643 262.629 132.805 262.392 133.042 262.306C133.279 262.219 133.548 262.176 133.85 262.176C134.152 262.219 134.378 262.36 134.529 262.597C134.68 262.834 134.734 263.103 134.691 263.405C134.561 264.138 134.755 264.86 135.272 265.571C135.79 266.282 136.544 266.972 137.536 267.64C138.527 268.308 139.702 268.977 141.06 269.645C142.418 270.313 143.829 270.97 145.295 271.617C148.011 272.867 150.112 273.945 151.6 274.85C153.087 275.755 154.197 276.639 154.93 277.501C155.792 278.45 156.298 279.398 156.449 280.346C156.6 281.295 156.632 282.329 156.546 283.45C156.546 283.536 156.417 284.021 156.158 284.905C155.9 285.789 155.318 286.726 154.412 287.718ZM153.119 255.839C155.663 258.641 156.826 262.069 156.611 266.121C156.525 266.81 156.158 267.155 155.512 267.155C154.736 267.069 154.391 266.681 154.477 265.991C154.563 264.31 154.348 262.715 153.83 261.206C153.313 259.698 152.537 258.383 151.503 257.262C150.382 256.012 148.97 255.031 147.267 254.32C145.564 253.609 143.657 253.188 141.545 253.059C141.243 253.059 140.984 252.951 140.769 252.736C140.553 252.52 140.467 252.262 140.51 251.96C140.51 251.658 140.618 251.41 140.833 251.216C141.049 251.022 141.308 250.925 141.609 250.925C146.524 251.184 150.36 252.822 153.119 255.839ZM134.238 281.64V281.704C134.022 282.221 133.656 282.48 133.139 282.48C132.621 282.351 132.276 282.135 132.104 281.834C131.932 281.532 131.91 281.23 132.039 280.928V280.864C132.169 280.346 132.535 280.088 133.139 280.088C133.225 280.088 133.29 280.098 133.333 280.12C133.376 280.142 133.44 280.152 133.527 280.152C133.828 280.239 134.044 280.432 134.173 280.734C134.303 281.036 134.324 281.338 134.238 281.64ZM175.751 279.441V295.025C175.751 295.714 175.406 296.059 174.716 296.059C174.414 296.059 174.156 295.962 173.94 295.768C173.725 295.574 173.617 295.326 173.617 295.025V279.441C173.617 279.096 173.725 278.827 173.94 278.633C174.156 278.439 174.414 278.342 174.716 278.342C175.406 278.342 175.751 278.708 175.751 279.441ZM179.437 267.802V257.715C179.437 257.413 179.544 257.154 179.76 256.939C179.975 256.723 180.234 256.615 180.536 256.615H192.498C192.843 256.615 193.112 256.723 193.306 256.939C193.5 257.154 193.597 257.413 193.597 257.715C193.597 258.404 193.231 258.749 192.498 258.749H181.57V267.802C181.57 268.492 181.225 268.836 180.536 268.836C180.234 268.836 179.975 268.739 179.76 268.545C179.544 268.352 179.437 268.104 179.437 267.802ZM161.784 256.615H169.673C169.974 256.615 170.222 256.723 170.416 256.939C170.61 257.154 170.707 257.413 170.707 257.715C170.707 258.404 170.362 258.749 169.673 258.749H161.784C161.051 258.749 160.685 258.404 160.685 257.715C160.685 257.413 160.782 257.154 160.976 256.939C161.17 256.723 161.439 256.615 161.784 256.615ZM175.686 252.024V272.458H180.536C180.838 272.458 181.085 272.565 181.279 272.781C181.473 272.996 181.57 273.255 181.57 273.557V290.046C181.57 290.778 181.225 291.145 180.536 291.145C180.234 291.145 179.975 291.048 179.76 290.854C179.544 290.66 179.437 290.39 179.437 290.046V274.591H174.652C174.35 274.591 174.091 274.494 173.876 274.3C173.66 274.106 173.552 273.859 173.552 273.557V253.059H161.784C161.051 253.059 160.685 252.714 160.685 252.024C160.685 251.292 161.051 250.925 161.784 250.925H174.652C175.341 250.925 175.686 251.292 175.686 252.024ZM180.536 250.925H188.942C189.632 250.925 189.976 251.292 189.976 252.024C189.976 252.714 189.632 253.059 188.942 253.059H180.536C180.234 253.059 179.975 252.962 179.76 252.768C179.544 252.574 179.437 252.326 179.437 252.024C179.437 251.68 179.544 251.41 179.76 251.216C179.975 251.022 180.234 250.925 180.536 250.925ZM192.886 250.86C193.231 250.947 193.468 251.141 193.597 251.442C193.727 251.744 193.748 252.046 193.662 252.348H193.597C193.468 252.908 193.102 253.188 192.498 253.188C192.024 253.016 191.701 252.79 191.528 252.509C191.356 252.229 191.313 251.938 191.399 251.636L191.464 251.572C191.593 251.054 191.959 250.796 192.563 250.796C192.735 250.796 192.843 250.817 192.886 250.86ZM196.701 295.994C195.839 295.736 195.516 295.262 195.731 294.572L211.638 251.83C211.854 251.356 212.198 251.119 212.673 251.119H213.578C214.052 251.119 214.397 251.356 214.613 251.83L222.307 275.303C222.393 275.604 222.372 275.885 222.243 276.143C222.113 276.402 221.898 276.574 221.596 276.661C221.51 276.661 221.456 276.671 221.434 276.693C221.413 276.714 221.359 276.725 221.273 276.725C220.799 276.725 220.454 276.467 220.238 275.949L213.061 254.094L197.736 295.348C197.52 295.779 197.175 295.994 196.701 295.994ZM233.623 295.93L233.3 295.994C232.826 295.994 232.481 295.779 232.265 295.348L227.092 281.252H212.737C212.392 281.252 212.123 281.144 211.929 280.928C211.735 280.713 211.638 280.454 211.638 280.152C211.638 279.463 212.004 279.118 212.737 279.118H227.868C228.299 279.118 228.623 279.312 228.838 279.7L234.27 294.572C234.485 295.262 234.27 295.714 233.623 295.93ZM203.943 292.567C203.081 292.309 202.758 291.835 202.973 291.145L211.961 264.633C212.22 264.159 212.565 263.922 212.996 263.922C213.082 263.922 213.147 263.933 213.19 263.955C213.233 263.976 213.276 263.987 213.319 263.987C213.621 264.073 213.837 264.256 213.966 264.536C214.095 264.817 214.117 265.086 214.031 265.345L204.978 291.856C204.762 292.33 204.418 292.567 203.943 292.567ZM226.704 292.438L226.381 292.503C225.864 292.503 225.54 292.266 225.411 291.791L223.795 286.942H210.927C210.625 286.942 210.377 286.834 210.183 286.618C209.989 286.403 209.892 286.144 209.892 285.843C209.892 285.153 210.237 284.808 210.927 284.808H224.57C225.045 284.808 225.389 285.045 225.605 285.519L227.416 291.145C227.502 291.403 227.48 291.662 227.351 291.921C227.222 292.179 227.006 292.352 226.704 292.438ZM226.51 276.596L226.187 276.661C225.713 276.661 225.368 276.423 225.152 275.949L218.686 256.098C218.471 255.408 218.686 254.956 219.333 254.74C219.419 254.697 219.527 254.676 219.656 254.676C220.173 254.676 220.518 254.913 220.691 255.387L227.222 275.238C227.308 275.54 227.286 275.82 227.157 276.079C227.028 276.337 226.812 276.51 226.51 276.596ZM202.779 296.124C202.305 295.994 201.982 295.79 201.809 295.509C201.637 295.229 201.594 294.917 201.68 294.572C201.896 294.011 202.262 293.731 202.779 293.731C202.866 293.731 202.93 293.742 202.973 293.764C203.017 293.785 203.081 293.796 203.167 293.796C203.469 293.925 203.685 294.13 203.814 294.41C203.943 294.69 203.965 294.981 203.879 295.283V295.348C203.663 295.865 203.297 296.124 202.779 296.124ZM244.292 269.16C243.387 268.901 243.042 268.427 243.258 267.737C243.775 266.185 244.508 264.741 245.456 263.405C246.405 262.069 247.504 260.905 248.754 259.913C250.004 258.922 251.394 258.157 252.925 257.618C254.455 257.079 256.061 256.809 257.742 256.809C259.897 256.809 261.923 257.251 263.82 258.135C265.717 259.019 267.377 260.258 268.799 261.853C269.015 262.069 269.112 262.316 269.09 262.597C269.069 262.877 268.95 263.125 268.734 263.34C268.562 263.513 268.325 263.599 268.023 263.599C267.721 263.599 267.463 263.491 267.247 263.276C265.997 261.896 264.553 260.829 262.915 260.075C261.277 259.32 259.552 258.943 257.742 258.943C256.276 258.943 254.886 259.18 253.571 259.655C252.256 260.129 251.06 260.797 249.983 261.659C248.905 262.521 247.967 263.523 247.17 264.666C246.372 265.808 245.758 267.069 245.327 268.449C245.111 268.923 244.766 269.16 244.292 269.16ZM257.742 290.046C255.587 290.046 253.604 289.625 251.793 288.785C249.983 287.944 248.398 286.812 247.04 285.39C245.683 283.967 244.594 282.318 243.775 280.443C242.956 278.568 242.503 276.596 242.417 274.527H238.279C237.589 274.527 237.244 274.182 237.244 273.492C237.244 270.561 237.751 267.737 238.764 265.021C239.777 262.306 241.199 259.902 243.031 257.812C244.863 255.721 247.04 254.04 249.562 252.768C252.084 251.496 254.854 250.86 257.871 250.86C260.07 250.86 262.171 251.216 264.176 251.927C266.18 252.639 268.012 253.63 269.672 254.902C271.332 256.174 272.797 257.682 274.069 259.428C275.341 261.174 276.343 263.06 277.076 265.086C277.162 265.388 277.151 265.679 277.043 265.959C276.936 266.239 276.731 266.422 276.429 266.509C276.386 266.509 276.343 266.519 276.3 266.541C276.257 266.563 276.192 266.573 276.106 266.573C275.675 266.573 275.33 266.336 275.071 265.862C274.425 264.052 273.53 262.36 272.388 260.786C271.245 259.213 269.931 257.844 268.443 256.68C266.956 255.516 265.318 254.611 263.529 253.964C261.74 253.318 259.854 252.994 257.871 252.994C255.242 252.994 252.817 253.533 250.597 254.611C248.377 255.689 246.458 257.133 244.842 258.943C243.225 260.754 241.943 262.823 240.995 265.151C240.046 267.479 239.507 269.893 239.378 272.393H243.452C243.753 272.393 244.001 272.501 244.195 272.716C244.389 272.932 244.486 273.19 244.486 273.492C244.486 275.346 244.81 277.146 245.456 278.891C246.103 280.637 247.008 282.178 248.172 283.515C249.336 284.851 250.737 285.918 252.375 286.715C254.013 287.513 255.802 287.912 257.742 287.912C260.285 287.912 262.613 287.222 264.725 285.843C266.838 284.463 268.454 282.545 269.575 280.088C269.791 279.7 270.114 279.506 270.545 279.506C270.717 279.506 270.868 279.527 270.998 279.57C271.256 279.7 271.429 279.904 271.515 280.185C271.601 280.465 271.601 280.734 271.515 280.993C270.222 283.709 268.357 285.896 265.922 287.556C263.486 289.216 260.759 290.046 257.742 290.046ZM257.871 296.124C255.543 296.124 253.302 295.714 251.146 294.895C248.991 294.076 247.03 292.923 245.262 291.436C243.495 289.949 241.975 288.17 240.704 286.101C239.432 284.032 238.494 281.769 237.891 279.312C237.805 279.01 237.848 278.741 238.02 278.503C238.193 278.266 238.43 278.105 238.731 278.018C238.99 278.018 239.249 278.072 239.507 278.18C239.766 278.288 239.917 278.493 239.96 278.794C240.477 280.864 241.286 282.825 242.385 284.679C243.484 286.532 244.81 288.149 246.361 289.528C247.913 290.908 249.659 291.996 251.599 292.794C253.539 293.591 255.63 293.99 257.871 293.99C259.854 293.99 261.762 293.656 263.594 292.988C265.426 292.32 267.107 291.382 268.637 290.175C270.168 288.968 271.515 287.524 272.679 285.843C273.843 284.161 274.748 282.286 275.395 280.217C275.524 279.7 275.869 279.441 276.429 279.441C276.472 279.441 276.515 279.452 276.559 279.473C276.602 279.495 276.666 279.506 276.753 279.506C277.356 279.721 277.593 280.174 277.464 280.864C276.731 283.148 275.718 285.228 274.425 287.103C273.131 288.979 271.623 290.584 269.898 291.921C268.174 293.257 266.288 294.292 264.24 295.025C262.193 295.757 260.07 296.124 257.871 296.124ZM270.092 266.638C269.618 266.509 269.295 266.304 269.122 266.024C268.95 265.743 268.907 265.431 268.993 265.086C269.209 264.569 269.575 264.31 270.092 264.31C270.265 264.31 270.394 264.332 270.48 264.375C270.782 264.461 270.998 264.644 271.127 264.924C271.256 265.205 271.278 265.517 271.192 265.862C271.019 266.379 270.653 266.638 270.092 266.638ZM284.771 271.552C284.469 271.552 284.221 271.445 284.027 271.229C283.833 271.013 283.736 270.755 283.736 270.453V251.895C283.736 251.593 283.833 251.335 284.027 251.119C284.221 250.904 284.469 250.796 284.771 250.796C285.072 250.796 285.331 250.904 285.547 251.119C285.762 251.335 285.87 251.593 285.87 251.895V270.453C285.87 270.755 285.762 271.013 285.547 271.229C285.331 271.445 285.072 271.552 284.771 271.552ZM283.736 291.015V279.829C283.736 279.57 283.801 279.355 283.93 279.182L306.044 251.055C306.26 250.796 306.54 250.667 306.885 250.667C307.144 250.667 307.359 250.731 307.532 250.86C308.135 251.292 308.2 251.787 307.726 252.348L285.87 280.217V291.015C285.87 291.317 285.762 291.576 285.547 291.791C285.331 292.007 285.072 292.115 284.771 292.115C284.469 292.115 284.221 292.007 284.027 291.791C283.833 291.576 283.736 291.317 283.736 291.015ZM291.56 257.65V263.858C291.56 264.159 291.452 264.418 291.237 264.633C291.021 264.849 290.763 264.957 290.461 264.957C290.159 264.957 289.911 264.849 289.717 264.633C289.523 264.418 289.426 264.159 289.426 263.858V257.65C289.426 256.96 289.771 256.615 290.461 256.615C290.763 256.615 291.021 256.712 291.237 256.906C291.452 257.1 291.56 257.348 291.56 257.65ZM290.461 295.8C289.771 295.8 289.426 295.456 289.426 294.766V282.803C289.426 282.502 289.491 282.286 289.62 282.157L293.435 277.307C293.651 277.049 293.931 276.919 294.276 276.919C294.664 276.919 294.944 277.049 295.116 277.307L308.049 294.249C308.437 294.809 308.372 295.305 307.855 295.736C307.682 295.865 307.467 295.93 307.208 295.93C306.863 295.93 306.583 295.8 306.368 295.542L294.276 279.7L291.56 283.127V294.766C291.56 295.068 291.452 295.315 291.237 295.509C291.021 295.703 290.763 295.8 290.461 295.8ZM315.679 250.86C316.239 251.335 316.282 251.83 315.808 252.348L299.578 272.91L315.873 294.119C316.045 294.335 316.11 294.583 316.067 294.863C316.024 295.143 315.873 295.391 315.614 295.606C315.485 295.736 315.269 295.8 314.968 295.8C314.666 295.8 314.386 295.671 314.127 295.412L297.38 273.557C297.078 273.126 297.078 272.695 297.38 272.264L314.192 251.055C314.407 250.796 314.666 250.667 314.968 250.667C315.269 250.667 315.507 250.731 315.679 250.86ZM283.671 294.249C283.887 293.731 284.253 293.473 284.771 293.473C284.943 293.473 285.072 293.494 285.159 293.537C285.46 293.623 285.676 293.807 285.805 294.087C285.934 294.367 285.956 294.658 285.87 294.96V295.025C285.74 295.542 285.374 295.8 284.771 295.8C284.296 295.671 283.973 295.466 283.801 295.186C283.628 294.906 283.585 294.593 283.671 294.249ZM146.685 195.656H139.702C139.4 195.656 139.141 195.558 138.926 195.365C138.71 195.171 138.603 194.923 138.603 194.621C138.603 194.319 138.71 194.06 138.926 193.845C139.141 193.629 139.4 193.522 139.702 193.522H146.685C148.539 193.522 150.328 193.823 152.052 194.427C153.777 195.03 155.372 195.849 156.837 196.884C158.303 197.919 159.618 199.158 160.782 200.602C161.945 202.046 162.872 203.609 163.562 205.29C164.941 208.523 165.631 212.187 165.631 216.283C165.631 219.3 165.243 222.156 164.467 224.85C163.691 227.545 162.517 229.894 160.943 231.898C159.37 233.903 157.398 235.498 155.027 236.683C152.656 237.869 149.875 238.462 146.685 238.462H139.766C139.465 238.462 139.206 238.365 138.991 238.171C138.775 237.977 138.667 237.729 138.667 237.427V205.031C138.667 204.687 138.775 204.417 138.991 204.223C139.206 204.029 139.465 203.932 139.766 203.932C140.456 203.932 140.801 204.299 140.801 205.031V236.328H146.685C150.091 236.328 153.141 235.476 155.835 233.774C158.529 232.071 160.501 229.625 161.752 226.435C162.915 223.589 163.497 220.205 163.497 216.283C163.497 213.179 163.034 210.194 162.107 207.327C161.18 204.46 159.531 201.971 157.161 199.859C155.393 198.307 153.55 197.218 151.632 196.593C149.714 195.968 148.065 195.656 146.685 195.656ZM134.076 238.526C133.775 238.526 133.527 238.418 133.333 238.203C133.139 237.987 133.042 237.729 133.042 237.427V200.117C133.042 199.815 133.139 199.557 133.333 199.341C133.527 199.126 133.775 199.018 134.076 199.018H145.263C148.237 199.018 150.878 199.837 153.184 201.475C155.49 203.113 157.247 205.247 158.454 207.877C159.445 210.248 159.941 212.899 159.941 215.83C159.941 217.684 159.736 219.473 159.327 221.197C158.917 222.921 158.281 224.505 157.419 225.95C156.557 227.394 155.458 228.665 154.121 229.765C152.785 230.864 151.19 231.715 149.336 232.319C148.561 232.319 148.108 232.082 147.979 231.607C147.892 231.306 147.914 231.025 148.043 230.767C148.173 230.508 148.388 230.336 148.69 230.25C149.38 230.034 150.242 229.657 151.276 229.118C152.311 228.579 153.313 227.76 154.283 226.661C155.253 225.562 156.083 224.139 156.773 222.393C157.462 220.647 157.807 218.46 157.807 215.83C157.807 213.588 157.473 211.487 156.805 209.525C156.137 207.564 154.962 205.807 153.281 204.256C152.16 203.264 150.899 202.499 149.498 201.96C148.097 201.421 146.685 201.152 145.263 201.152H135.176V237.427C135.176 237.729 135.068 237.987 134.852 238.203C134.637 238.418 134.378 238.526 134.076 238.526ZM145.457 233.03C144.939 232.901 144.595 232.696 144.422 232.416C144.25 232.136 144.228 231.823 144.357 231.478C144.444 231.09 144.638 230.864 144.939 230.799C145.241 230.735 145.543 230.702 145.845 230.702C146.146 230.832 146.362 231.036 146.491 231.316C146.621 231.597 146.642 231.888 146.556 232.189V232.254C146.34 232.771 145.974 233.03 145.457 233.03ZM211.002 238.72H187.53C187.228 238.72 186.97 238.612 186.754 238.397C186.539 238.181 186.431 237.923 186.431 237.621V218.869C186.431 218.567 186.539 218.309 186.754 218.093C186.97 217.878 187.228 217.77 187.53 217.77H205.183C205.484 217.77 205.743 217.878 205.959 218.093C206.174 218.309 206.282 218.567 206.282 218.869C206.282 219.171 206.174 219.419 205.959 219.613C205.743 219.807 205.484 219.904 205.183 219.904H188.565V236.586H211.002C211.692 236.586 212.037 236.931 212.037 237.621C212.037 237.923 211.94 238.181 211.746 238.397C211.552 238.612 211.304 238.72 211.002 238.72ZM205.183 214.278H187.53C187.228 214.278 186.97 214.17 186.754 213.955C186.539 213.739 186.431 213.481 186.431 213.179V194.298C186.431 193.996 186.539 193.737 186.754 193.522C186.97 193.306 187.228 193.198 187.53 193.198C187.832 193.198 188.08 193.306 188.274 193.522C188.468 193.737 188.565 193.996 188.565 194.298V212.144H205.183C205.484 212.144 205.743 212.241 205.959 212.435C206.174 212.629 206.282 212.877 206.282 213.179C206.282 213.481 206.174 213.739 205.959 213.955C205.743 214.17 205.484 214.278 205.183 214.278ZM193.026 199.018H210.873C211.175 199.018 211.433 199.126 211.649 199.341C211.864 199.557 211.972 199.815 211.972 200.117C211.972 200.419 211.864 200.667 211.649 200.861C211.433 201.055 211.175 201.152 210.873 201.152H194.126V208.394C194.126 208.696 194.018 208.954 193.802 209.17C193.587 209.385 193.328 209.493 193.026 209.493C192.724 209.493 192.477 209.385 192.283 209.17C192.089 208.954 191.992 208.696 191.992 208.394V200.117C191.992 199.815 192.089 199.557 192.283 199.341C192.477 199.126 192.724 199.018 193.026 199.018ZM211.002 195.526H192.832C192.531 195.526 192.283 195.418 192.089 195.203C191.895 194.987 191.798 194.729 191.798 194.427C191.798 193.737 192.143 193.392 192.832 193.392H211.002C211.304 193.392 211.563 193.489 211.778 193.683C211.994 193.877 212.101 194.125 212.101 194.427C212.101 194.729 211.994 194.987 211.778 195.203C211.563 195.418 211.304 195.526 211.002 195.526ZM193.026 222.361C193.328 222.361 193.587 222.458 193.802 222.652C194.018 222.846 194.126 223.115 194.126 223.46V231.09H207.058C207.36 231.09 207.618 231.198 207.834 231.413C208.049 231.629 208.157 231.888 208.157 232.189C208.157 232.491 208.049 232.739 207.834 232.933C207.618 233.127 207.36 233.224 207.058 233.224H193.026C192.337 233.224 191.992 232.879 191.992 232.189V223.46C191.992 222.727 192.337 222.361 193.026 222.361ZM211.067 231.025C211.369 231.112 211.584 231.295 211.714 231.575C211.843 231.855 211.864 232.146 211.778 232.448V232.513C211.563 233.03 211.196 233.289 210.679 233.289C210.205 233.159 209.881 232.955 209.709 232.674C209.537 232.394 209.493 232.082 209.58 231.737C209.795 231.219 210.162 230.961 210.679 230.961C210.851 230.961 210.981 230.982 211.067 231.025ZM248.226 238.526L247.903 238.591C247.385 238.591 247.04 238.354 246.868 237.88L231.608 195.138C231.522 194.836 231.543 194.556 231.672 194.298C231.802 194.039 231.996 193.845 232.254 193.716C232.341 193.716 232.405 193.705 232.448 193.683C232.492 193.662 232.556 193.651 232.642 193.651C233.117 193.651 233.44 193.888 233.612 194.362L248.872 237.104C249.088 237.75 248.872 238.225 248.226 238.526ZM252.558 221.844C252.084 221.757 251.772 221.574 251.621 221.294C251.47 221.014 251.437 220.744 251.524 220.486L259.218 198.113C259.434 197.638 259.779 197.401 260.253 197.401C260.425 197.401 260.533 197.423 260.576 197.466C260.878 197.552 261.094 197.725 261.223 197.983C261.352 198.242 261.374 198.522 261.288 198.824L253.593 221.132C253.377 221.606 253.032 221.844 252.558 221.844ZM252.817 238.591C252.256 238.505 251.912 238.246 251.782 237.815L238.979 199.6C238.764 198.91 238.979 198.458 239.626 198.242C239.712 198.199 239.82 198.177 239.949 198.177C240.51 198.177 240.854 198.414 240.984 198.889L252.817 234.194L266.719 194.427C266.849 193.91 267.172 193.651 267.689 193.651C267.775 193.651 267.84 193.662 267.883 193.683C267.926 193.705 267.991 193.716 268.077 193.716C268.336 193.802 268.53 193.985 268.659 194.265C268.788 194.545 268.81 194.815 268.724 195.074L253.787 237.815C253.657 238.332 253.334 238.591 252.817 238.591ZM261.546 195.914C261.072 195.785 260.749 195.58 260.576 195.3C260.404 195.02 260.361 194.707 260.447 194.362C260.576 193.974 260.77 193.748 261.029 193.683C261.288 193.619 261.589 193.586 261.934 193.586C262.236 193.716 262.451 193.92 262.581 194.201C262.71 194.481 262.732 194.772 262.645 195.074V195.138C262.43 195.655 262.064 195.914 261.546 195.914ZM289.459 214.149C287.088 211.993 286.01 209.428 286.225 206.454C286.225 206.368 286.236 206.152 286.258 205.807C286.279 205.463 286.366 205.042 286.516 204.547C286.667 204.051 286.894 203.523 287.195 202.962C287.497 202.402 287.928 201.863 288.489 201.346C289.868 199.966 291.495 199.126 293.371 198.824C295.246 198.522 297.11 198.371 298.964 198.371C299.567 198.414 300.516 198.533 301.809 198.727C303.102 198.921 304.395 199.384 305.689 200.117C308.922 201.885 310.474 204.643 310.344 208.394C310.258 209.04 309.892 209.364 309.245 209.364C308.9 209.364 308.631 209.256 308.437 209.04C308.243 208.825 308.167 208.566 308.21 208.265C308.297 206.67 307.973 205.355 307.241 204.32C306.853 203.63 306.335 203.059 305.689 202.607C305.042 202.154 304.331 201.777 303.555 201.475C302.779 201.173 301.992 200.947 301.195 200.796C300.397 200.645 299.632 200.548 298.899 200.505C297.347 200.505 295.763 200.613 294.147 200.828C292.53 201.044 291.14 201.712 289.976 202.833C289.157 203.609 288.683 204.385 288.553 205.161C288.424 205.937 288.359 206.368 288.359 206.454C288.316 207.704 288.489 208.814 288.877 209.784C289.265 210.754 289.868 211.627 290.687 212.403C291.506 213.179 292.487 213.901 293.629 214.569C294.772 215.237 296.054 215.873 297.477 216.477L298.447 216.929C300.128 217.662 301.669 218.363 303.07 219.031C304.471 219.699 305.667 220.399 306.659 221.132C307.779 221.865 308.577 222.684 309.051 223.589C309.655 224.624 309.805 225.702 309.504 226.822C309.374 227.34 309.03 227.598 308.469 227.598C308.038 227.512 307.736 227.351 307.564 227.113C307.391 226.876 307.348 226.607 307.435 226.305C307.779 225.012 307.068 223.826 305.301 222.749C303.533 221.671 300.968 220.378 297.606 218.869L296.636 218.481C295.429 217.921 294.179 217.306 292.886 216.638C291.592 215.97 290.45 215.14 289.459 214.149ZM300.839 238.72H300.774C298.576 238.591 296.517 238.117 294.599 237.298C292.681 236.479 291.032 235.336 289.653 233.871C288.316 232.448 287.314 230.853 286.646 229.086C285.978 227.318 285.687 225.465 285.773 223.525C285.859 222.835 286.247 222.49 286.937 222.49C287.238 222.533 287.486 222.652 287.68 222.846C287.874 223.04 287.95 223.309 287.907 223.654C287.777 227.016 288.877 229.926 291.204 232.383C292.411 233.634 293.834 234.625 295.472 235.358C297.11 236.091 298.899 236.5 300.839 236.586C301.184 236.586 301.453 236.694 301.647 236.91C301.841 237.125 301.917 237.384 301.874 237.686C301.874 237.987 301.766 238.235 301.55 238.429C301.335 238.623 301.098 238.72 300.839 238.72ZM313.836 230.25C312.327 231.845 310.635 232.836 308.76 233.224C306.885 233.612 304.913 233.806 302.844 233.806C301.809 233.763 300.742 233.612 299.643 233.353C298.544 233.095 297.509 232.728 296.539 232.254C295.569 231.78 294.696 231.176 293.92 230.444C293.144 229.711 292.541 228.827 292.11 227.792C292.023 227.534 292.034 227.264 292.142 226.984C292.25 226.704 292.433 226.499 292.692 226.37C292.778 226.37 292.842 226.359 292.886 226.338C292.929 226.316 292.993 226.305 293.08 226.305C293.554 226.305 293.899 226.521 294.114 226.952C294.459 227.814 294.955 228.525 295.601 229.086C296.248 229.646 296.981 230.109 297.8 230.476C298.619 230.842 299.47 231.112 300.354 231.284C301.238 231.457 302.089 231.586 302.908 231.672C303.986 231.672 305.107 231.607 306.271 231.478C307.435 231.349 308.534 231.069 309.568 230.638C310.603 230.206 311.508 229.614 312.284 228.859C313.06 228.105 313.599 227.103 313.901 225.853C313.944 224.775 313.901 223.913 313.771 223.266C313.642 222.619 313.319 221.994 312.801 221.391C312.155 220.658 311.12 219.871 309.698 219.031C308.275 218.19 306.314 217.209 303.813 216.089C301.96 215.27 300.311 214.494 298.867 213.761C297.423 213.028 296.205 212.295 295.213 211.562C292.67 209.666 291.592 207.661 291.98 205.549C292.067 205.161 292.228 204.924 292.465 204.837C292.702 204.751 292.972 204.708 293.274 204.708C293.575 204.751 293.802 204.891 293.953 205.128C294.103 205.366 294.157 205.635 294.114 205.937C293.985 206.67 294.179 207.392 294.696 208.103C295.213 208.814 295.968 209.504 296.959 210.172C297.951 210.84 299.125 211.508 300.483 212.177C301.841 212.845 303.253 213.502 304.719 214.149C307.435 215.399 309.536 216.477 311.023 217.382C312.51 218.287 313.62 219.171 314.353 220.033C315.215 220.981 315.722 221.93 315.873 222.878C316.024 223.826 316.056 224.861 315.97 225.982C315.97 226.068 315.841 226.553 315.582 227.437C315.323 228.32 314.741 229.258 313.836 230.25ZM312.543 198.371C315.086 201.173 316.25 204.6 316.035 208.653C315.948 209.342 315.582 209.687 314.935 209.687C314.159 209.601 313.814 209.213 313.901 208.523C313.987 206.842 313.771 205.247 313.254 203.738C312.737 202.229 311.961 200.915 310.926 199.794C309.805 198.544 308.394 197.563 306.691 196.852C304.988 196.14 303.081 195.72 300.968 195.591C300.667 195.591 300.408 195.483 300.192 195.268C299.977 195.052 299.891 194.793 299.934 194.492C299.934 194.19 300.042 193.942 300.257 193.748C300.473 193.554 300.731 193.457 301.033 193.457C305.947 193.716 309.784 195.354 312.543 198.371ZM293.662 224.171V224.236C293.446 224.753 293.08 225.012 292.562 225.012C292.045 224.883 291.7 224.667 291.528 224.365C291.355 224.064 291.334 223.762 291.463 223.46V223.395C291.592 222.878 291.959 222.619 292.562 222.619C292.649 222.619 292.713 222.63 292.756 222.652C292.799 222.673 292.864 222.684 292.95 222.684C293.252 222.77 293.468 222.964 293.597 223.266C293.726 223.568 293.748 223.87 293.662 224.171ZM8.95569 225.077C9.64541 225.077 9.99027 225.421 9.99027 226.111V237.362C9.99027 238.095 9.64541 238.462 8.95569 238.462C8.65393 238.462 8.39528 238.365 8.17974 238.171C7.9642 237.977 7.85645 237.707 7.85645 237.362V226.111C7.85645 225.809 7.9642 225.562 8.17974 225.368C8.39528 225.174 8.65393 225.077 8.95569 225.077ZM9.60231 215.054L22.082 233.741C22.2545 233.957 22.3083 234.215 22.2437 234.517C22.179 234.819 22.0389 235.056 21.8234 235.229C21.651 235.358 21.4354 235.423 21.1768 235.423C20.8319 235.423 20.5517 235.25 20.3362 234.905L7.79179 216.283C7.40382 215.679 7.51157 215.183 8.11508 214.795C8.24441 214.666 8.4384 214.601 8.69705 214.601C8.99881 214.601 9.30056 214.752 9.60231 215.054ZM16.1332 200.764H4.30003V237.362C4.30003 238.095 3.95518 238.462 3.26545 238.462C2.53262 238.462 2.16621 238.095 2.16621 237.362V199.729C2.16621 199.427 2.26319 199.169 2.45718 198.953C2.65116 198.738 2.92059 198.63 3.26545 198.63H16.1332C17.685 198.63 19.1184 198.77 20.4331 199.05C21.7479 199.33 22.8687 199.815 23.7956 200.505C24.7224 201.195 25.4444 202.111 25.9617 203.253C26.479 204.396 26.7377 205.829 26.7377 207.553C26.7377 213.631 23.3321 216.671 16.5211 216.671H14.5166C14.2148 216.671 13.9562 216.563 13.7407 216.347C13.5251 216.132 13.4174 215.873 13.4174 215.571C13.4174 215.27 13.5251 215.022 13.7407 214.828C13.9562 214.634 14.2148 214.537 14.5166 214.537H16.5211C19.0214 214.537 20.9936 214.041 22.4377 213.05C23.8818 212.058 24.6038 210.226 24.6038 207.553C24.6038 206.174 24.3991 205.042 23.9896 204.159C23.58 203.275 23.0089 202.585 22.276 202.089C21.5432 201.594 20.6487 201.249 19.5925 201.055C18.5364 200.861 17.3833 200.764 16.1332 200.764ZM20.0775 221.456L30.5527 236.78C30.9407 237.384 30.8545 237.88 30.2941 238.268C30.1216 238.397 29.9277 238.462 29.7121 238.462C29.3242 238.462 29.0224 238.311 28.8069 238.009L17.297 221.068C17.0384 220.766 17.0168 220.399 17.2324 219.968C17.4479 219.58 17.7712 219.386 18.2023 219.386C20.0128 219.386 21.6725 219.106 23.1813 218.546C24.6901 217.985 25.9833 217.188 27.061 216.153C28.1387 215.119 28.9685 213.869 29.5505 212.403C30.1324 210.937 30.4234 209.278 30.4234 207.424C30.4234 203.286 29.3888 200.3 27.3196 198.468C25.2505 196.636 22.2113 195.72 18.2023 195.72H9.02035C8.33062 195.72 7.98577 195.354 7.98577 194.621C7.98577 193.931 8.33062 193.586 9.02035 193.586H18.2023C22.7717 193.586 26.3066 194.696 28.8069 196.916C31.3071 199.136 32.5572 202.639 32.5572 207.424C32.5572 211.39 31.4472 214.591 29.2272 217.026C27.0071 219.462 23.9572 220.938 20.0775 221.456ZM23.5692 236.198C23.9141 236.285 24.1512 236.468 24.2805 236.748C24.4099 237.028 24.4314 237.341 24.3452 237.686H24.2805C24.1512 238.203 23.7848 238.462 23.1813 238.462C22.7071 238.332 22.3838 238.128 22.2113 237.847C22.0389 237.567 21.9958 237.276 22.082 236.974V236.91C22.2976 236.392 22.664 236.134 23.1813 236.134C23.3537 236.134 23.483 236.155 23.5692 236.198ZM61.4395 225.077C62.1292 225.077 62.4741 225.421 62.4741 226.111V237.362C62.4741 238.095 62.1292 238.462 61.4395 238.462C61.1378 238.462 60.8791 238.365 60.6636 238.171C60.448 237.977 60.3403 237.707 60.3403 237.362V226.111C60.3403 225.809 60.448 225.562 60.6636 225.368C60.8791 225.174 61.1378 225.077 61.4395 225.077ZM62.0861 215.054L74.5659 233.741C74.7383 233.957 74.7922 234.215 74.7275 234.517C74.6628 234.819 74.5228 235.056 74.3072 235.229C74.1348 235.358 73.9192 235.423 73.6606 235.423C73.3157 235.423 73.0355 235.25 72.82 234.905L60.2756 216.283C59.8876 215.679 59.9954 215.183 60.5989 214.795C60.7282 214.666 60.9222 214.601 61.1809 214.601C61.4826 214.601 61.7844 214.752 62.0861 215.054ZM68.617 200.764H56.7839V237.362C56.7839 238.095 56.439 238.462 55.7493 238.462C55.0165 238.462 54.65 238.095 54.65 237.362V199.729C54.65 199.427 54.747 199.169 54.941 198.953C55.135 198.738 55.4044 198.63 55.7493 198.63H68.617C70.1689 198.63 71.6022 198.77 72.917 199.05C74.2318 199.33 75.3526 199.815 76.2794 200.505C77.2062 201.195 77.9283 202.111 78.4456 203.253C78.9629 204.396 79.2215 205.829 79.2215 207.553C79.2215 213.631 75.816 216.671 69.0049 216.671H67.0004C66.6987 216.671 66.44 216.563 66.2245 216.347C66.009 216.132 65.9012 215.873 65.9012 215.571C65.9012 215.27 66.009 215.022 66.2245 214.828C66.44 214.634 66.6987 214.537 67.0004 214.537H69.0049C71.5052 214.537 73.4774 214.041 74.9215 213.05C76.3656 212.058 77.0877 210.226 77.0877 207.553C77.0877 206.174 76.8829 205.042 76.4734 204.159C76.0638 203.275 75.4927 202.585 74.7598 202.089C74.027 201.594 73.1325 201.249 72.0764 201.055C71.0202 200.861 69.8671 200.764 68.617 200.764ZM72.5613 221.456L83.0365 236.78C83.4245 237.384 83.3383 237.88 82.7779 238.268C82.6055 238.397 82.4115 238.462 82.1959 238.462C81.808 238.462 81.5062 238.311 81.2907 238.009L69.7809 221.068C69.5222 220.766 69.5007 220.399 69.7162 219.968C69.9318 219.58 70.2551 219.386 70.6861 219.386C72.4967 219.386 74.1563 219.106 75.6651 218.546C77.1739 217.985 78.4671 217.188 79.5448 216.153C80.6225 215.119 81.4523 213.869 82.0343 212.403C82.6162 210.937 82.9072 209.278 82.9072 207.424C82.9072 203.286 81.8726 200.3 79.8035 198.468C77.7343 196.636 74.6952 195.72 70.6861 195.72H61.5042C60.8145 195.72 60.4696 195.354 60.4696 194.621C60.4696 193.931 60.8145 193.586 61.5042 193.586H70.6861C75.2556 193.586 78.7904 194.696 81.2907 196.916C83.7909 199.136 85.0411 202.639 85.0411 207.424C85.0411 211.39 83.931 214.591 81.711 217.026C79.4909 219.462 76.441 220.938 72.5613 221.456ZM76.0531 236.198C76.3979 236.285 76.635 236.468 76.7644 236.748C76.8937 237.028 76.9152 237.341 76.829 237.686H76.7644C76.635 238.203 76.2686 238.462 75.6651 238.462C75.1909 238.332 74.8676 238.128 74.6952 237.847C74.5227 237.567 74.4796 237.276 74.5659 236.974V236.91C74.7814 236.392 75.1478 236.134 75.6651 236.134C75.8375 236.134 75.9669 236.155 76.0531 236.198Z" fill="white"/>
<path d="M172.215 50.372V11.16L205.971 30.766L172.215 50.372Z" fill="#C2BF26"/>
<path d="M206.741 71.2975V32.0863L172.982 51.6923L206.741 71.2975Z" fill="#E3B32D"/>
<path d="M208.271 71.2674V32.0578L242.029 51.6622L208.271 71.2674Z" fill="#D78500"/>
<path d="M242.569 92.1506V52.9394L208.815 72.5446L242.569 92.1506Z" fill="#BD0912"/>
<path d="M208.271 113.062V73.851L242.029 93.457L208.271 113.062Z" fill="#731C7B"/>
<path d="M242.569 133.958V94.7465L208.815 114.352L242.569 133.958Z" fill="#514494"/>
<path d="M208.271 154.883V115.674L242.029 135.276L208.271 154.883Z" fill="#5593D0"/>
<path d="M206.741 154.913V115.704L172.982 135.307L206.741 154.913Z" fill="#80B8AF"/>
<path d="M172.215 175.871V136.659L205.971 156.264L172.215 175.871Z" fill="#A7BE31"/>
<path d="M170.71 175.871V136.659L136.955 156.264L170.71 175.871Z" fill="#BBC125"/>
<path d="M136.175 154.938V115.727L169.932 135.334L136.175 154.938Z" fill="#E2B232"/>
<path d="M134.726 154.943V115.732L100.969 135.338L134.726 154.943Z" fill="#D68501"/>
<path d="M100.2 134.049V94.8375L133.959 114.442L100.2 134.049Z" fill="#C30514"/>
<path d="M134.726 113.047V73.8356L100.969 93.44L134.726 113.047Z" fill="#751B7F"/>
<path d="M100.2 92.1513V52.9394L133.959 72.5446L100.2 92.1513Z" fill="#55438E"/>
<path d="M134.726 71.2975V32.0863L100.969 51.6923L134.726 71.2975Z" fill="#4F96CE"/>
<path d="M136.175 71.2906V32.0794L169.932 51.683L136.175 71.2906Z" fill="#80B8AF"/>
<path d="M170.71 50.372V11.16L136.954 30.766L170.71 50.372Z" fill="#A6BE32"/>
<path d="M171.616 93.7686L171.62 93.7712V93.766L205.369 74.1652L171.62 54.566V54.56L171.615 54.563L171.61 54.56V54.566L137.866 74.1652L171.61 93.7652V93.772L171.616 93.7686Z" fill="#DFDFDF"/>
<path d="M137.817 113.497L137.823 113.494L171.571 133.096V93.886L171.573 93.8847L137.817 74.276V113.497Z" fill="#ABABAB"/>
<path d="M205.367 74.276V113.489L205.369 113.49L205.367 113.491V113.497L205.362 113.494L171.61 133.102V93.8807L171.613 93.8826L205.367 74.276Z" fill="#C4C4C4"/>
</svg>
