<svg xmlns="http://www.w3.org/2000/svg" xmlns:xlink="http://www.w3.org/1999/xlink"><symbol fill="none" viewBox="0 0 20 20" id="icon-download" xmlns="http://www.w3.org/2000/svg"><path d="M12.438 1.164v6.399h3.34a.76.76 0 01.537 1.298l-5.793 5.797a.738.738 0 01-1.04 0l-5.8-5.797a.76.76 0 01.537-1.299h3.343V1.165A.912.912 0 018.477.25h3.046a.912.912 0 01.915.914z" fill="#fff"/><path d="M18.836 13.656h-5.587l-1.867 1.867a1.951 1.951 0 01-2.765 0l-1.866-1.867H1.164a.912.912 0 00-.914.914v4.266a.911.911 0 00.914.914h17.672a.912.912 0 00.914-.914V14.57a.91.91 0 00-.914-.914zm-4.57 3.656a.609.609 0 110-1.217.609.609 0 010 1.218zm2.437 0a.609.609 0 110-1.217.609.609 0 010 1.218z" fill="#fff"/></symbol><symbol fill="none" viewBox="0 0 21 22" id="icon-facebook" xmlns="http://www.w3.org/2000/svg"><path d="M21 1.658v18.68c0 .642-.52 1.157-1.158 1.157H14.49v-8.128h2.728l.408-3.169h-3.14V8.173c0-.918.253-1.542 1.57-1.542h1.678V3.795a22.562 22.562 0 00-2.447-.126c-2.419 0-4.078 1.476-4.078 4.19v2.34H8.47v3.168h2.738V21.5H1.158A1.16 1.16 0 010 20.342V1.658C0 1.02.52.5 1.158.5h18.68C20.48.5 21 1.02 21 1.658z" fill="#fff"/></symbol><symbol fill="none" viewBox="0 0 23 24" id="icon-github" xmlns="http://www.w3.org/2000/svg"><path d="M7.693 18.628c0 .094-.107.169-.241.169-.153.014-.26-.061-.26-.169 0-.094.107-.169.241-.169.14-.014.26.061.26.17zm-1.442-.21c-.033.093.06.2.2.229.12.047.259 0 .287-.094.028-.094-.06-.201-.2-.244-.12-.032-.255.014-.287.108zm2.05-.08c-.135.032-.228.121-.214.23.014.093.135.154.274.121.134-.033.227-.122.213-.216-.014-.089-.14-.15-.274-.136zM11.35.374C4.92.375 0 5.311 0 11.813c0 5.198 3.237 9.646 7.86 11.212.593.108.802-.262.802-.567 0-.29-.014-1.894-.014-2.878 0 0-3.246.703-3.927-1.397 0 0-.53-1.364-1.29-1.716 0 0-1.061-.736.075-.722 0 0 1.154.094 1.79 1.21 1.015 1.81 2.717 1.289 3.38.98.107-.75.408-1.27.742-1.58-2.592-.29-5.208-.67-5.208-5.18 0-1.29.353-1.936 1.095-2.76-.12-.306-.515-1.562.12-3.184.97-.304 3.2 1.266 3.2 1.266a10.785 10.785 0 012.912-.399c.988 0 1.985.136 2.912.399 0 0 2.23-1.575 3.2-1.266.635 1.627.24 2.878.12 3.183.742.83 1.197 1.477 1.197 2.761 0 4.523-2.732 4.884-5.324 5.18.427.37.789 1.073.789 2.175 0 1.58-.014 3.534-.014 3.918 0 .305.213.675.802.568C19.856 21.459 23 17.01 23 11.813 23 5.31 17.783.374 11.352.374zM4.508 16.542c-.06.047-.046.155.033.244.074.075.18.108.24.047.061-.047.047-.155-.032-.244-.074-.075-.18-.108-.24-.047zm-.5-.38c-.033.061.013.136.106.183.074.047.167.033.2-.032.032-.061-.014-.136-.107-.183-.093-.028-.167-.014-.2.033zm1.502 1.67c-.074.06-.046.2.06.29.107.108.241.122.302.047.06-.061.032-.202-.06-.29-.103-.109-.242-.123-.302-.048zm-.529-.69c-.074.047-.074.169 0 .277.074.108.2.154.26.108.074-.061.074-.183 0-.291-.065-.108-.186-.155-.26-.094z" fill="#fff"/></symbol><symbol fill="none" viewBox="0 0 21 22" id="icon-whatsapp" xmlns="http://www.w3.org/2000/svg"><path d="M17.855 3.552A10.328 10.328 0 0010.495.5C4.758.5.09 5.169.09 10.906c0 1.833.478 3.624 1.388 5.203L0 21.5l5.517-1.448c1.519.83 3.23 1.265 4.974 1.265h.004C16.228 21.317 21 16.648 21 10.911c0-2.78-1.181-5.39-3.145-7.36zm-7.36 16.012A8.634 8.634 0 016.09 18.36l-.314-.187-3.272.858.872-3.193-.206-.328a8.62 8.62 0 01-1.322-4.603c0-4.767 3.881-8.648 8.653-8.648 2.31 0 4.481.9 6.113 2.536 1.63 1.636 2.634 3.806 2.63 6.117 0 4.772-3.98 8.653-8.748 8.653zm4.744-6.478c-.258-.131-1.537-.76-1.777-.844-.239-.089-.412-.131-.585.131-.174.263-.67.844-.825 1.022-.15.174-.305.197-.563.066-1.528-.764-2.531-1.364-3.539-3.094-.267-.46.267-.426.764-1.42.084-.174.042-.324-.023-.455-.066-.131-.586-1.41-.802-1.931-.21-.506-.426-.436-.586-.445-.15-.01-.323-.01-.497-.01a.963.963 0 00-.694.324c-.239.262-.909.89-.909 2.17 0 1.28.933 2.517 1.06 2.69.13.174 1.832 2.8 4.443 3.929 1.65.712 2.297.773 3.122.651.502-.075 1.538-.628 1.753-1.237.216-.61.216-1.13.15-1.238-.06-.117-.234-.182-.492-.31z" fill="#fff"/></symbol><symbol fill="none" viewBox="0 0 317 297" id="logo" xmlns="http://www.w3.org/2000/svg"><path d="M24.572 271.488H6.854c-.69 0-1.034-.345-1.034-1.035v-8.147c0-.302.097-.561.29-.776a.955.955 0 01.744-.324c.302 0 .56.108.776.324.216.215.323.474.323.776v7.048h16.619c.301 0 .55.108.743.323.194.216.291.474.291.776 0 .69-.345 1.035-1.035 1.035zm.387-18.752H6.725c-.69 0-1.035-.367-1.035-1.1 0-.689.345-1.034 1.035-1.034h18.234c.302 0 .56.097.776.291a.956.956 0 01.324.743c0 .345-.108.615-.324.809a1.12 1.12 0 01-.776.291zM5.82 294.96v-18.817c0-.345.087-.603.26-.776.301-.215.56-.323.775-.323h14.937c.302 0 .56.097.776.291.215.194.323.463.323.808 0 .302-.108.55-.323.744a1.12 1.12 0 01-.776.291H7.953v17.782a.954.954 0 01-.323.743 1.12 1.12 0 01-.776.291c-.69 0-1.034-.344-1.034-1.034zm-4.784 1.034c-.69 0-1.035-.344-1.035-1.034v-37.569c0-.689.345-1.034 1.035-1.034h20.303c.733 0 1.1.345 1.1 1.034 0 .302-.097.561-.291.776-.194.216-.464.324-.809.324H2.134v36.469a.954.954 0 01-.323.743 1.12 1.12 0 01-.776.291zm24.312-39.702c.302.086.528.27.68.55.15.28.161.592.032.937-.13.518-.496.776-1.1.776-.474-.129-.797-.334-.97-.614a1.05 1.05 0 01-.129-.873v-.065c.216-.517.582-.776 1.1-.776.172 0 .301.022.387.065zm10.346 18.041v-16.618c0-.302.097-.561.291-.776.194-.216.464-.324.808-.324.302 0 .55.108.744.324.194.215.291.474.291.776v16.618c0 1.25.13 2.511.388 3.782a18.308 18.308 0 001.164 3.686 13.717 13.717 0 002.005 3.266c.819.991 1.767 1.832 2.845 2.521.258.173.43.399.517.679a.912.912 0 01-.13.809c-.172.301-.474.452-.905.452-.258 0-.452-.043-.582-.129-2.327-1.423-4.149-3.481-5.463-6.175-1.315-2.694-1.973-5.658-1.973-8.891zm-5.69-.13v-21.661c0-.302.097-.561.291-.776.194-.216.463-.324.808-.324.302 0 .55.108.744.324.194.215.29.474.29.776v21.661c0 2.716.4 5.27 1.197 7.663.798 2.392 1.875 4.505 3.233 6.337 1.358 1.832 2.964 3.319 4.817 4.461 1.854 1.143 3.837 1.8 5.95 1.973v-4.527c0-.302.096-.56.29-.776a.957.957 0 01.744-.323c1.897 0 3.513-.474 4.85-1.423a11.448 11.448 0 003.265-3.556c.84-1.423 1.455-2.996 1.843-4.72.388-1.725.582-3.384.582-4.979v-18.041c0-.345.108-.614.323-.808a1.12 1.12 0 01.776-.291c.69 0 1.035.366 1.035 1.099v18.041c0 1.81-.216 3.664-.647 5.561-.431 1.896-1.12 3.631-2.07 5.205a13.995 13.995 0 01-3.62 4.009c-1.466 1.099-3.212 1.757-5.238 1.972v4.656c0 .302-.108.56-.323.776a1.06 1.06 0 01-.776.323c-2.931 0-5.529-.69-7.792-2.069a19.683 19.683 0 01-5.755-5.335c-1.573-2.177-2.77-4.612-3.588-7.307-.82-2.694-1.229-5.334-1.229-7.921zm23.02 20.175c1.94-.733 3.631-1.8 5.076-3.201a19.721 19.721 0 003.62-4.785 23.84 23.84 0 002.2-5.722c.495-2.026.743-4.009.743-5.949v-22.115c0-.301.097-.56.29-.776a.957.957 0 01.744-.323c.302 0 .56.108.776.323.216.216.324.475.324.776v22.115c0 2.112-.28 4.289-.841 6.531a26.852 26.852 0 01-2.457 6.336 21.61 21.61 0 01-4.041 5.303 15.07 15.07 0 01-5.658 3.427c-.733.129-1.186-.065-1.358-.582-.13-.302-.13-.582 0-.841a.982.982 0 01.582-.517zm7.371-42.871a1.221 1.221 0 01.711 1.487v.065c-.215.517-.582.776-1.099.776-.474-.129-.797-.345-.97-.647-.172-.301-.215-.603-.13-.905v-.065c.216-.517.583-.776 1.1-.776.086 0 .151.011.194.033a.46.46 0 00.194.032zm16.166 43c0-.302.107-.549.323-.743a1.12 1.12 0 01.776-.291h15.907c.69 0 1.034.344 1.034 1.034 0 .302-.097.561-.29.776a.954.954 0 01-.744.323H77.659c-.302 0-.56-.107-.776-.323a1.057 1.057 0 01-.323-.776zm13.45-4.526h-18.3c-.69 0-1.035-.345-1.035-1.035v-37.439c0-.69.345-1.034 1.035-1.034.733 0 1.1.344 1.1 1.034v36.34h17.2c.344 0 .614.108.807.323.195.216.292.475.292.776 0 .69-.367 1.035-1.1 1.035zm-13.515-6.208v-26.446c0-.69.345-1.035 1.034-1.035.302 0 .56.097.776.291a.956.956 0 01.324.744v26.446c0 .302-.108.55-.324.744a1.12 1.12 0 01-.776.291c-.69 0-1.034-.345-1.034-1.035zm17.135 6.337c-.474-.129-.797-.345-.97-.646-.172-.302-.215-.604-.129-.906v-.064c.216-.518.582-.776 1.1-.776a.46.46 0 01.193.032.444.444 0 00.194.032c.345.087.582.281.712.582.129.302.129.604 0 .906v.064c-.13.518-.496.776-1.1.776zm10.282 4.397c0-.302.107-.549.323-.743.215-.194.474-.291.776-.291h15.907c.689 0 1.034.344 1.034 1.034 0 .302-.097.561-.291.776a.954.954 0 01-.743.323h-15.907c-.302 0-.561-.107-.776-.323a1.055 1.055 0 01-.323-.776zm13.449-4.526h-18.3c-.689 0-1.034-.345-1.034-1.035v-37.439c0-.69.345-1.034 1.035-1.034.733 0 1.099.344 1.099 1.034v36.34h17.2c.345 0 .614.108.808.323.194.216.291.475.291.776 0 .69-.366 1.035-1.099 1.035zm-13.514-6.208v-26.446c0-.69.345-1.035 1.034-1.035.302 0 .561.097.776.291a.955.955 0 01.324.744v26.446c0 .302-.108.55-.324.744a1.119 1.119 0 01-.776.291c-.689 0-1.034-.345-1.034-1.035zm17.135 6.337c-.474-.129-.797-.345-.97-.646-.172-.302-.215-.604-.129-.906v-.064c.215-.518.582-.776 1.099-.776a.46.46 0 01.194.032.445.445 0 00.194.032c.345.087.582.281.711.582.13.302.13.604 0 .906v.064c-.129.518-.495.776-1.099.776zm9.053-18.493c-2.371-2.155-3.449-4.72-3.233-7.695 0-.086.011-.302.032-.646.022-.345.108-.766.259-1.261a8.753 8.753 0 01.679-1.585c.301-.56.733-1.099 1.293-1.616 1.379-1.38 3.007-2.22 4.882-2.522a35.13 35.13 0 015.593-.453c.604.044 1.552.162 2.845.356 1.293.194 2.587.658 3.88 1.39 3.233 1.768 4.785 4.527 4.656 8.277-.087.647-.453.97-1.1.97-.344 0-.614-.108-.808-.323a.913.913 0 01-.226-.776c.086-1.595-.237-2.91-.97-3.945a5.139 5.139 0 00-1.552-1.713 10.069 10.069 0 00-2.134-1.132 13.347 13.347 0 00-2.36-.679 18.055 18.055 0 00-2.295-.291c-1.552 0-3.137.108-4.753.324-1.617.215-3.007.883-4.171 2.004-.819.776-1.293 1.552-1.422 2.328-.13.776-.194 1.207-.194 1.293-.044 1.25.129 2.36.517 3.33.388.97.991 1.843 1.81 2.619.819.776 1.8 1.498 2.943 2.166a33.72 33.72 0 003.847 1.908l.97.452c1.681.733 3.222 1.434 4.623 2.102 1.401.668 2.597 1.369 3.589 2.101 1.121.733 1.918 1.552 2.392 2.458.604 1.034.755 2.112.453 3.233-.129.517-.474.776-1.035.776-.431-.087-.732-.248-.905-.485-.172-.237-.215-.507-.129-.809.345-1.293-.367-2.478-2.134-3.556-1.767-1.078-4.332-2.371-7.695-3.88l-.97-.388a97.133 97.133 0 01-3.75-1.843 13.708 13.708 0 01-3.427-2.489zm11.38 24.571h-.064c-2.199-.129-4.257-.603-6.176-1.422-1.918-.819-3.567-1.962-4.946-3.427a14.36 14.36 0 01-3.007-4.785 13.834 13.834 0 01-.873-5.561c.086-.69.474-1.035 1.164-1.035.302.043.55.162.744.356.194.194.269.463.226.808-.129 3.363.97 6.272 3.298 8.73a13.572 13.572 0 004.267 2.974c1.639.733 3.427 1.142 5.367 1.229.345 0 .615.107.809.323a.912.912 0 01.226.776.956.956 0 01-.323.743 1.043 1.043 0 01-.712.291zm12.997-8.47c-1.508 1.595-3.2 2.586-5.076 2.974a29.14 29.14 0 01-5.916.582 17.033 17.033 0 01-3.201-.453 14.696 14.696 0 01-3.104-1.099 10.485 10.485 0 01-2.618-1.81 7.641 7.641 0 01-1.811-2.651 1.173 1.173 0 01.032-.809c.108-.28.291-.485.55-.614a.46.46 0 00.194-.032.443.443 0 01.194-.033c.474 0 .819.216 1.035.647.344.862.84 1.573 1.487 2.134a8.838 8.838 0 002.198 1.39c.819.366 1.671.636 2.554.808.884.173 1.735.302 2.554.388a30.31 30.31 0 003.363-.194 11.957 11.957 0 003.298-.84 8.581 8.581 0 002.715-1.779c.776-.754 1.315-1.756 1.617-3.006.043-1.078 0-1.94-.129-2.587-.13-.646-.453-1.271-.97-1.875-.647-.733-1.681-1.519-3.104-2.36s-3.384-1.821-5.884-2.942a102.672 102.672 0 01-4.947-2.328c-1.444-.733-2.662-1.466-3.653-2.199-2.544-1.896-3.621-3.901-3.233-6.013.086-.388.248-.625.485-.711.237-.087.506-.13.808-.13a.916.916 0 01.679.421c.151.237.205.506.162.808-.13.733.064 1.455.581 2.166.518.711 1.272 1.401 2.264 2.069.991.668 2.166 1.337 3.524 2.005 1.358.668 2.769 1.325 4.235 1.972 2.716 1.25 4.817 2.328 6.305 3.233 1.487.905 2.597 1.789 3.33 2.651.862.949 1.368 1.897 1.519 2.845.151.949.183 1.983.097 3.104 0 .086-.129.571-.388 1.455-.258.884-.84 1.821-1.746 2.813zm-1.293-31.879c2.543 2.802 3.707 6.23 3.492 10.282-.086.689-.453 1.034-1.099 1.034-.776-.086-1.121-.474-1.035-1.164.086-1.681-.129-3.276-.647-4.785-.517-1.508-1.293-2.823-2.327-3.944-1.121-1.25-2.533-2.231-4.236-2.942-1.703-.711-3.61-1.132-5.722-1.261-.302 0-.561-.108-.776-.323a.869.869 0 01-.259-.776c0-.302.108-.55.323-.744.216-.194.475-.291.776-.291 4.915.259 8.751 1.897 11.51 4.914zm-18.881 25.801v.064c-.216.517-.582.776-1.099.776-.518-.129-.863-.345-1.035-.646-.172-.302-.194-.604-.065-.906v-.064c.13-.518.496-.776 1.1-.776.086 0 .151.01.194.032a.442.442 0 00.194.032c.301.087.517.28.646.582.13.302.151.604.065.906zm41.513-2.199v15.584c0 .689-.345 1.034-1.035 1.034a1.12 1.12 0 01-.776-.291.957.957 0 01-.323-.743v-15.584c0-.345.108-.614.323-.808a1.12 1.12 0 01.776-.291c.69 0 1.035.366 1.035 1.099zm3.685-11.639v-10.087c0-.302.108-.561.324-.776.215-.216.474-.324.776-.324h11.962c.345 0 .614.108.808.324.194.215.291.474.291.776 0 .689-.366 1.034-1.099 1.034H181.57v9.053c0 .69-.345 1.034-1.034 1.034-.302 0-.561-.097-.776-.291a.952.952 0 01-.324-.743zm-17.652-11.187h7.889c.301 0 .549.108.743.324.194.215.291.474.291.776 0 .689-.345 1.034-1.034 1.034h-7.889c-.733 0-1.099-.345-1.099-1.034 0-.302.097-.561.291-.776.194-.216.463-.324.808-.324zm13.902-4.591v20.434h4.85c.301 0 .549.107.743.323.194.215.291.474.291.776v16.489c0 .732-.345 1.099-1.034 1.099-.302 0-.561-.097-.776-.291-.216-.194-.324-.464-.324-.808v-15.455h-4.784c-.302 0-.561-.097-.776-.291a.953.953 0 01-.324-.743v-20.498h-11.768c-.733 0-1.099-.345-1.099-1.035 0-.732.366-1.099 1.099-1.099h12.868c.689 0 1.034.367 1.034 1.099zm4.85-1.099h8.406c.69 0 1.034.367 1.034 1.099 0 .69-.344 1.035-1.034 1.035h-8.406c-.302 0-.561-.097-.776-.291a.955.955 0 01-.324-.744c0-.344.108-.614.324-.808.215-.194.474-.291.776-.291zm12.35-.065c.345.087.582.281.711.582.13.302.151.604.065.906h-.065c-.129.56-.495.84-1.099.84-.474-.172-.797-.398-.97-.679a1.053 1.053 0 01-.129-.873l.065-.064c.129-.518.495-.776 1.099-.776.172 0 .28.021.323.064zm3.815 45.134c-.862-.258-1.185-.732-.97-1.422l15.907-42.742c.216-.474.56-.711 1.035-.711h.905c.474 0 .819.237 1.034.711l7.695 23.473c.086.301.065.582-.064.84a.992.992 0 01-.647.518c-.086 0-.14.01-.162.032-.021.021-.075.032-.161.032-.475 0-.819-.258-1.035-.776l-7.177-21.855-15.325 41.254c-.216.431-.561.646-1.035.646zm36.922-.064l-.323.064c-.474 0-.819-.215-1.035-.646l-5.173-14.096h-14.355c-.345 0-.614-.108-.808-.324a1.119 1.119 0 01-.291-.776c0-.689.366-1.034 1.099-1.034h15.131c.431 0 .755.194.97.582l5.432 14.872c.215.69 0 1.142-.647 1.358zm-29.68-3.363c-.862-.258-1.185-.732-.97-1.422l8.988-26.512c.259-.474.604-.711 1.035-.711.086 0 .151.011.194.033a.292.292 0 00.129.032.972.972 0 01.647.549c.129.281.151.55.065.809l-9.053 26.511c-.216.474-.561.711-1.035.711zm22.761-.129l-.323.065c-.517 0-.841-.237-.97-.712l-1.617-4.849h-12.867a.955.955 0 01-.744-.324 1.118 1.118 0 01-.291-.775c0-.69.345-1.035 1.035-1.035h13.643c.475 0 .819.237 1.035.711l1.811 5.626a.984.984 0 01-.065.776.988.988 0 01-.647.517zm-.194-15.842l-.323.065c-.474 0-.819-.238-1.035-.712l-6.466-19.851c-.215-.69 0-1.142.647-1.358a.72.72 0 01.323-.064c.517 0 .862.237 1.035.711l6.531 19.851a1.13 1.13 0 01-.065.841.988.988 0 01-.647.517zm-23.731 19.528c-.474-.13-.797-.334-.97-.615a1.177 1.177 0 01-.129-.937c.216-.561.582-.841 1.099-.841a.44.44 0 01.194.033.46.46 0 00.194.032 1.223 1.223 0 01.712 1.487v.065c-.216.517-.582.776-1.1.776zm41.513-26.964c-.905-.259-1.25-.733-1.034-1.423a16.406 16.406 0 012.198-4.332 16.985 16.985 0 013.298-3.492 14.392 14.392 0 018.988-3.104c2.155 0 4.181.442 6.078 1.326a15.233 15.233 0 014.979 3.718c.216.216.313.463.291.744-.022.28-.14.528-.356.743-.172.173-.409.259-.711.259a1.06 1.06 0 01-.776-.323 13.311 13.311 0 00-4.332-3.201 12.217 12.217 0 00-5.173-1.132 12.18 12.18 0 00-4.171.712 12.483 12.483 0 00-3.589 2.004 14.326 14.326 0 00-2.812 3.007 13.675 13.675 0 00-1.843 3.783c-.216.474-.561.711-1.035.711zm13.45 20.886c-2.155 0-4.138-.421-5.949-1.261a15.588 15.588 0 01-4.753-3.395 16.887 16.887 0 01-3.265-4.947 16.348 16.348 0 01-1.358-5.916h-4.138c-.69 0-1.035-.345-1.035-1.035 0-2.931.507-5.755 1.52-8.471 1.013-2.715 2.435-5.119 4.267-7.209a21.415 21.415 0 016.531-5.044c2.522-1.272 5.292-1.908 8.309-1.908 2.199 0 4.3.356 6.305 1.067a19.961 19.961 0 015.496 2.975 21.922 21.922 0 014.397 4.526 22.646 22.646 0 013.007 5.658c.086.302.075.593-.033.873a.878.878 0 01-.614.55.28.28 0 00-.129.032.445.445 0 01-.194.032c-.431 0-.776-.237-1.035-.711a20.125 20.125 0 00-2.683-5.076 20.408 20.408 0 00-3.945-4.106 17.667 17.667 0 00-4.914-2.716 16.531 16.531 0 00-5.658-.97c-2.629 0-5.054.539-7.274 1.617a18.42 18.42 0 00-5.755 4.332c-1.617 1.811-2.899 3.88-3.847 6.208a22.065 22.065 0 00-1.617 7.242h4.074c.301 0 .549.108.743.323.194.216.291.474.291.776 0 1.854.324 3.654.97 5.399.647 1.746 1.552 3.287 2.716 4.624a13.125 13.125 0 004.203 3.2c1.638.798 3.427 1.197 5.367 1.197 2.543 0 4.871-.69 6.983-2.069 2.113-1.38 3.729-3.298 4.85-5.755.216-.388.539-.582.97-.582.172 0 .323.021.453.064.258.13.431.334.517.615.086.28.086.549 0 .808-1.293 2.716-3.158 4.903-5.593 6.563-2.436 1.66-5.163 2.49-8.18 2.49zm.129 6.078c-2.328 0-4.569-.41-6.725-1.229a20.26 20.26 0 01-5.884-3.459c-1.767-1.487-3.287-3.266-4.558-5.335-1.272-2.069-2.21-4.332-2.813-6.789-.086-.302-.043-.571.129-.809.172-.237.41-.398.711-.485.259 0 .518.054.776.162.259.108.41.313.453.614a21.852 21.852 0 002.425 5.885 20.283 20.283 0 003.976 4.849 18.297 18.297 0 005.238 3.266c1.94.797 4.031 1.196 6.272 1.196 1.983 0 3.891-.334 5.723-1.002a18.106 18.106 0 005.043-2.813 19.884 19.884 0 004.042-4.332c1.164-1.682 2.069-3.557 2.716-5.626.129-.517.474-.776 1.034-.776a.3.3 0 01.13.032.44.44 0 00.194.033c.603.215.84.668.711 1.358-.733 2.284-1.746 4.364-3.039 6.239a21.45 21.45 0 01-4.527 4.818 20.41 20.41 0 01-5.658 3.104 18.775 18.775 0 01-6.369 1.099zm12.221-29.486c-.474-.129-.797-.334-.97-.614a1.18 1.18 0 01-.129-.938c.216-.517.582-.776 1.099-.776.173 0 .302.022.388.065a.972.972 0 01.647.549c.129.281.151.593.065.938-.173.517-.539.776-1.1.776zm14.679 4.914a.954.954 0 01-.744-.323 1.12 1.12 0 01-.291-.776v-18.558c0-.302.097-.56.291-.776a.958.958 0 01.744-.323c.301 0 .56.108.775.323.216.216.324.474.324.776v18.558c0 .302-.108.56-.324.776a1.054 1.054 0 01-.775.323zm-1.035 19.463v-11.186c0-.259.065-.474.194-.647l22.114-28.127c.216-.259.496-.388.841-.388.258 0 .474.064.646.193.604.432.669.927.194 1.488l-21.855 27.869v10.798c0 .302-.108.561-.324.776a1.055 1.055 0 01-.775.324.955.955 0 01-.744-.324 1.119 1.119 0 01-.291-.776zm7.824-33.365v6.208c0 .301-.108.56-.323.775a1.058 1.058 0 01-.776.324.955.955 0 01-.744-.324 1.118 1.118 0 01-.291-.775v-6.208c0-.69.345-1.035 1.035-1.035.302 0 .56.097.776.291a.958.958 0 01.323.744zm-1.099 38.15c-.69 0-1.035-.344-1.035-1.034v-11.963c0-.301.065-.517.194-.646l3.815-4.85c.216-.258.496-.388.841-.388.388 0 .668.13.84.388l12.933 16.942c.388.56.323 1.056-.194 1.487a1.051 1.051 0 01-.647.194c-.345 0-.625-.13-.84-.388L294.276 279.7l-2.716 3.427v11.639a.956.956 0 01-.323.743 1.12 1.12 0 01-.776.291zm25.218-44.94c.56.475.603.97.129 1.488l-16.23 20.562 16.295 21.209a.921.921 0 01.194.744c-.043.28-.194.528-.453.743-.129.13-.345.194-.646.194-.302 0-.582-.129-.841-.388l-16.747-21.855c-.302-.431-.302-.862 0-1.293l16.812-21.209c.215-.259.474-.388.776-.388.301 0 .538.064.711.193zm-32.008 43.389c.216-.518.582-.776 1.1-.776.172 0 .301.021.388.064.301.086.517.27.646.55s.151.571.065.873v.065c-.13.517-.496.775-1.099.775-.475-.129-.798-.334-.97-.614a1.173 1.173 0 01-.13-.937zm-136.986-98.593h-6.983c-.302 0-.561-.098-.776-.291a.954.954 0 01-.323-.744c0-.302.107-.561.323-.776.215-.216.474-.323.776-.323h6.983c1.854 0 3.643.301 5.367.905a19.265 19.265 0 014.785 2.457 19.5 19.5 0 013.945 3.718 18.862 18.862 0 012.78 4.688c1.379 3.233 2.069 6.897 2.069 10.993 0 3.017-.388 5.873-1.164 8.567-.776 2.695-1.95 5.044-3.524 7.048-1.573 2.005-3.545 3.6-5.916 4.785-2.371 1.186-5.152 1.779-8.342 1.779h-6.919c-.301 0-.56-.097-.775-.291a.955.955 0 01-.324-.744v-32.396c0-.344.108-.614.324-.808.215-.194.474-.291.775-.291.69 0 1.035.367 1.035 1.099v31.297h5.884c3.406 0 6.456-.852 9.15-2.554 2.694-1.703 4.666-4.149 5.916-7.339 1.164-2.846 1.746-6.23 1.746-10.152 0-3.104-.463-6.089-1.39-8.956-.927-2.867-2.576-5.356-4.947-7.468-1.767-1.552-3.61-2.641-5.528-3.266-1.918-.625-3.567-.937-4.947-.937zm-12.609 42.87a.956.956 0 01-.743-.323 1.12 1.12 0 01-.291-.776v-37.31c0-.302.097-.56.291-.776a.956.956 0 01.743-.323h11.187c2.974 0 5.615.819 7.921 2.457s4.063 3.772 5.27 6.402c.991 2.371 1.487 5.022 1.487 7.953 0 1.854-.205 3.643-.614 5.367a16.801 16.801 0 01-1.908 4.753 14.616 14.616 0 01-3.298 3.815c-1.336 1.099-2.931 1.95-4.785 2.554-.776 0-1.228-.237-1.357-.712a1.122 1.122 0 01.064-.84.988.988 0 01.647-.517c.69-.216 1.552-.593 2.586-1.132 1.035-.539 2.037-1.358 3.007-2.457.97-1.099 1.8-2.522 2.49-4.268.689-1.746 1.034-3.933 1.034-6.563 0-2.242-.334-4.343-1.002-6.305-.668-1.961-1.843-3.718-3.524-5.269a12.357 12.357 0 00-3.783-2.296 11.714 11.714 0 00-4.235-.808h-10.088v36.275c0 .302-.107.56-.323.776a1.059 1.059 0 01-.776.323zm11.381-5.496c-.518-.129-.862-.334-1.035-.614-.172-.28-.194-.593-.065-.938.087-.388.281-.614.582-.679a4.36 4.36 0 01.906-.097c.301.13.517.334.646.614.13.281.151.572.065.873v.065c-.216.517-.582.776-1.099.776zm65.545 5.69H187.53a1.06 1.06 0 01-.776-.323 1.06 1.06 0 01-.323-.776v-18.752c0-.302.108-.56.323-.776a1.06 1.06 0 01.776-.323h17.653c.301 0 .56.108.776.323.215.216.323.474.323.776 0 .302-.108.55-.323.744a1.122 1.122 0 01-.776.291h-16.618v16.682h22.437c.69 0 1.035.345 1.035 1.035 0 .302-.097.56-.291.776a.958.958 0 01-.744.323zm-5.819-24.442H187.53a1.06 1.06 0 01-.776-.323 1.06 1.06 0 01-.323-.776v-18.881c0-.302.108-.561.323-.776.216-.216.474-.324.776-.324.302 0 .55.108.744.324.194.215.291.474.291.776v17.846h16.618c.301 0 .56.097.776.291a.958.958 0 01.323.744c0 .302-.108.56-.323.776a1.062 1.062 0 01-.776.323zm-12.157-15.26h17.847c.302 0 .56.108.776.323.215.216.323.474.323.776 0 .302-.108.55-.323.744a1.12 1.12 0 01-.776.291h-16.748v7.242c0 .302-.107.56-.323.776a1.059 1.059 0 01-.776.323.956.956 0 01-.743-.323 1.12 1.12 0 01-.291-.776v-8.277c0-.302.097-.56.291-.776a.956.956 0 01.743-.323zm17.976-3.492h-18.17a.956.956 0 01-.743-.323 1.12 1.12 0 01-.291-.776c0-.69.345-1.035 1.034-1.035h18.17c.302 0 .561.097.776.291a.954.954 0 01.323.744c0 .302-.107.56-.323.776a1.059 1.059 0 01-.776.323zm-17.976 26.835c.302 0 .561.097.776.291.216.194.323.463.323.808v7.63h12.933c.302 0 .56.108.776.323.215.216.323.475.323.776 0 .302-.108.55-.323.744a1.12 1.12 0 01-.776.291h-14.032c-.69 0-1.034-.345-1.034-1.035v-8.729c0-.733.344-1.099 1.034-1.099zm18.041 8.664c.302.087.517.27.647.55.129.28.15.571.064.873v.065c-.215.517-.582.776-1.099.776-.474-.13-.798-.334-.97-.615a1.173 1.173 0 01-.129-.937c.215-.518.582-.776 1.099-.776.172 0 .302.021.388.064zm37.159 7.501l-.323.065c-.518 0-.863-.237-1.035-.711l-15.26-42.742a1.127 1.127 0 01.064-.84c.13-.259.324-.453.582-.582a.44.44 0 00.194-.033.46.46 0 01.194-.032c.475 0 .798.237.97.711l15.26 42.742c.216.646 0 1.121-.646 1.422zm4.332-16.682c-.474-.087-.787-.27-.937-.55-.151-.28-.184-.55-.097-.808l7.694-22.373c.216-.475.561-.712 1.035-.712.172 0 .28.022.323.065a.988.988 0 01.647.517c.129.259.151.539.065.841l-7.695 22.308c-.216.474-.561.712-1.035.712zm.259 16.747c-.561-.086-.905-.345-1.035-.776L238.979 199.6c-.215-.69 0-1.142.647-1.358a.72.72 0 01.323-.065c.561 0 .905.237 1.035.712l11.833 35.305 13.902-39.767c.129-.517.453-.776.97-.776a.46.46 0 01.194.032.443.443 0 00.194.033c.259.086.453.269.582.549.129.28.151.55.065.809l-14.937 42.741c-.13.517-.453.776-.97.776zm8.729-42.677c-.474-.129-.797-.334-.97-.614a1.179 1.179 0 01-.129-.938c.129-.388.323-.614.582-.679.259-.064.56-.097.905-.097.302.13.517.334.647.615.129.28.151.571.064.873v.064c-.215.517-.582.776-1.099.776zm27.913 18.235c-2.371-2.156-3.449-4.721-3.234-7.695 0-.086.011-.302.033-.647.021-.344.108-.765.258-1.26a8.824 8.824 0 01.679-1.585c.302-.56.733-1.099 1.294-1.616 1.379-1.38 3.006-2.22 4.882-2.522a35.12 35.12 0 015.593-.453c.603.043 1.552.162 2.845.356 1.293.194 2.586.657 3.88 1.39 3.233 1.768 4.785 4.526 4.655 8.277-.086.646-.452.97-1.099.97-.345 0-.614-.108-.808-.324a.911.911 0 01-.227-.775c.087-1.595-.237-2.91-.969-3.945a5.14 5.14 0 00-1.552-1.713 10.069 10.069 0 00-2.134-1.132 13.347 13.347 0 00-2.36-.679 18.047 18.047 0 00-2.296-.291c-1.552 0-3.136.108-4.753.323-1.616.216-3.006.884-4.17 2.005-.819.776-1.293 1.552-1.423 2.328-.129.776-.194 1.207-.194 1.293-.043 1.25.13 2.36.518 3.33.388.97.991 1.843 1.81 2.619.819.776 1.8 1.498 2.942 2.166a33.821 33.821 0 003.848 1.908l.97.452c1.681.733 3.222 1.434 4.623 2.102 1.401.668 2.597 1.368 3.589 2.101 1.12.733 1.918 1.552 2.392 2.457.604 1.035.754 2.113.453 3.233-.13.518-.474.776-1.035.776-.431-.086-.733-.247-.905-.485-.173-.237-.216-.506-.13-.808.345-1.293-.366-2.479-2.133-3.556-1.768-1.078-4.333-2.371-7.695-3.88l-.97-.388a98.61 98.61 0 01-3.75-1.843 13.69 13.69 0 01-3.427-2.489zm11.38 24.571h-.065c-2.198-.129-4.257-.603-6.175-1.422-1.918-.819-3.567-1.962-4.947-3.427a14.357 14.357 0 01-3.006-4.785 13.834 13.834 0 01-.873-5.561c.086-.69.474-1.035 1.164-1.035.301.043.549.162.743.356.194.194.27.463.227.808-.13 3.362.97 6.272 3.297 8.729a13.563 13.563 0 004.268 2.975c1.638.733 3.427 1.142 5.367 1.228.345 0 .614.108.808.324.194.215.27.474.227.776a.955.955 0 01-.324.743 1.039 1.039 0 01-.711.291zm12.997-8.47c-1.509 1.595-3.201 2.586-5.076 2.974a29.143 29.143 0 01-5.917.582 17.034 17.034 0 01-3.2-.453 14.696 14.696 0 01-3.104-1.099 10.535 10.535 0 01-2.619-1.81 7.633 7.633 0 01-1.81-2.652 1.16 1.16 0 01.032-.808c.108-.28.291-.485.55-.614.086 0 .15-.011.194-.032a.44.44 0 01.194-.033c.474 0 .819.216 1.034.647.345.862.841 1.573 1.487 2.134a8.892 8.892 0 002.199 1.39c.819.366 1.67.636 2.554.808.884.173 1.735.302 2.554.388 1.078 0 2.199-.065 3.363-.194a11.95 11.95 0 003.297-.84 8.603 8.603 0 002.716-1.779c.776-.754 1.315-1.756 1.617-3.006.043-1.078 0-1.94-.13-2.587-.129-.647-.452-1.272-.97-1.875-.646-.733-1.681-1.52-3.103-2.36-1.423-.841-3.384-1.822-5.885-2.942a103.059 103.059 0 01-4.946-2.328c-1.444-.733-2.662-1.466-3.654-2.199-2.543-1.896-3.621-3.901-3.233-6.013.087-.388.248-.625.485-.712.237-.086.507-.129.809-.129.301.043.528.183.678.42.151.238.205.507.162.809-.129.733.065 1.455.582 2.166.517.711 1.272 1.401 2.263 2.069.992.668 2.166 1.336 3.524 2.005 1.358.668 2.77 1.325 4.236 1.972 2.715 1.25 4.817 2.328 6.304 3.233 1.487.905 2.597 1.789 3.33 2.651.862.948 1.369 1.897 1.52 2.845.151.948.183 1.983.097 3.104 0 .086-.129.571-.388 1.455-.259.883-.841 1.821-1.746 2.813zm-1.293-31.879c2.543 2.802 3.707 6.229 3.491 10.282-.086.689-.452 1.034-1.099 1.034-.776-.086-1.121-.474-1.034-1.164.086-1.681-.13-3.276-.647-4.785-.517-1.509-1.293-2.823-2.328-3.944-1.121-1.25-2.532-2.231-4.235-2.942-1.703-.712-3.61-1.132-5.723-1.261-.301 0-.56-.108-.776-.323a.872.872 0 01-.258-.776c0-.302.108-.55.323-.744a1.12 1.12 0 01.776-.291c4.914.259 8.751 1.897 11.51 4.914zm-18.881 25.8v.065c-.216.517-.582.776-1.1.776-.517-.129-.862-.345-1.034-.647-.173-.301-.194-.603-.065-.905v-.065c.129-.517.496-.776 1.099-.776.086 0 .151.011.194.033a.46.46 0 00.194.032c.302.086.518.28.647.582.129.302.151.604.065.905zm-284.706.906c.69 0 1.034.344 1.034 1.034v11.251c0 .733-.345 1.1-1.034 1.1a1.12 1.12 0 01-.776-.291c-.216-.194-.324-.464-.324-.809v-11.251c0-.302.108-.549.324-.743a1.12 1.12 0 01.776-.291zm.646-10.023l12.48 18.687c.172.216.226.474.162.776a1.2 1.2 0 01-.42.712 1.05 1.05 0 01-.647.194c-.345 0-.625-.173-.84-.518L7.791 216.283c-.388-.604-.28-1.1.323-1.488.13-.129.323-.194.582-.194.302 0 .604.151.905.453zm6.531-14.29H4.3v36.598c0 .733-.345 1.1-1.035 1.1-.732 0-1.099-.367-1.099-1.1v-37.633c0-.302.097-.56.291-.776.194-.215.464-.323.808-.323h12.868c1.552 0 2.985.14 4.3.42 1.315.28 2.436.765 3.363 1.455.926.69 1.648 1.606 2.166 2.748.517 1.143.776 2.576.776 4.3 0 6.078-3.406 9.118-10.217 9.118h-2.004c-.302 0-.56-.108-.776-.324a1.057 1.057 0 01-.324-.776c0-.301.108-.549.324-.743a1.12 1.12 0 01.776-.291h2.004c2.5 0 4.473-.496 5.917-1.487 1.444-.992 2.166-2.824 2.166-5.497 0-1.379-.205-2.511-.614-3.394-.41-.884-.981-1.574-1.714-2.07-.733-.495-1.627-.84-2.683-1.034a19.18 19.18 0 00-3.46-.291zm3.945 20.692l10.475 15.324c.388.604.301 1.1-.259 1.488a.948.948 0 01-.582.194c-.388 0-.69-.151-.905-.453l-11.51-16.941c-.259-.302-.28-.669-.065-1.1.216-.388.54-.582.97-.582 1.81 0 3.47-.28 4.98-.84 1.508-.561 2.801-1.358 3.879-2.393 1.078-1.034 1.907-2.284 2.49-3.75.581-1.466.872-3.125.872-4.979 0-4.138-1.034-7.124-3.103-8.956-2.07-1.832-5.109-2.748-9.118-2.748H9.02c-.69 0-1.034-.366-1.034-1.099 0-.69.345-1.035 1.034-1.035h9.182c4.57 0 8.105 1.11 10.605 3.33 2.5 2.22 3.75 5.723 3.75 10.508 0 3.966-1.11 7.167-3.33 9.602-2.22 2.436-5.27 3.912-9.15 4.43zm3.491 14.742c.345.087.582.27.712.55.129.28.15.593.064.938h-.064c-.13.517-.496.776-1.1.776-.474-.13-.797-.334-.97-.615a1.05 1.05 0 01-.129-.873v-.064c.215-.518.582-.776 1.1-.776.172 0 .301.021.387.064zm37.87-11.121c.69 0 1.035.344 1.035 1.034v11.251c0 .733-.345 1.1-1.034 1.1a1.12 1.12 0 01-.776-.291c-.216-.194-.324-.464-.324-.809v-11.251c0-.302.108-.549.323-.743a1.12 1.12 0 01.777-.291zm.647-10.023l12.48 18.687c.172.216.226.474.162.776a1.201 1.201 0 01-.42.712 1.05 1.05 0 01-.647.194c-.345 0-.626-.173-.841-.518l-12.544-18.622c-.388-.604-.28-1.1.323-1.488.13-.129.323-.194.582-.194.302 0 .603.151.905.453zm6.531-14.29H56.784v36.598c0 .733-.345 1.1-1.035 1.1-.733 0-1.099-.367-1.099-1.1v-37.633c0-.302.097-.56.291-.776.194-.215.463-.323.808-.323h12.868c1.552 0 2.985.14 4.3.42 1.315.28 2.436.765 3.362 1.455.927.69 1.65 1.606 2.166 2.748.518 1.143.777 2.576.777 4.3 0 6.078-3.406 9.118-10.217 9.118H67c-.301 0-.56-.108-.775-.324a1.057 1.057 0 01-.324-.776c0-.301.108-.549.324-.743a1.12 1.12 0 01.775-.291h2.005c2.5 0 4.472-.496 5.916-1.487 1.445-.992 2.167-2.824 2.167-5.497 0-1.379-.205-2.511-.615-3.394-.41-.884-.98-1.574-1.713-2.07-.733-.495-1.628-.84-2.684-1.034a19.181 19.181 0 00-3.459-.291zm3.944 20.692l10.475 15.324c.388.604.302 1.1-.258 1.488a.948.948 0 01-.582.194c-.388 0-.69-.151-.905-.453l-11.51-16.941c-.259-.302-.28-.669-.065-1.1.216-.388.539-.582.97-.582 1.81 0 3.47-.28 4.98-.84 1.508-.561 2.801-1.358 3.879-2.393 1.078-1.034 1.907-2.284 2.49-3.75.581-1.466.872-3.125.872-4.979 0-4.138-1.034-7.124-3.104-8.956-2.069-1.832-5.108-2.748-9.117-2.748h-9.182c-.69 0-1.035-.366-1.035-1.099 0-.69.345-1.035 1.035-1.035h9.182c4.57 0 8.104 1.11 10.605 3.33 2.5 2.22 3.75 5.723 3.75 10.508 0 3.966-1.11 7.167-3.33 9.602-2.22 2.436-5.27 3.912-9.15 4.43zm3.492 14.742c.345.087.582.27.711.55.13.28.151.593.065.938h-.065c-.129.517-.495.776-1.099.776-.474-.13-.797-.334-.97-.615a1.05 1.05 0 01-.13-.873v-.064c.216-.518.583-.776 1.1-.776.172 0 .302.021.388.064z" fill="#fff"/><path d="M172.214 50.372V11.16l33.757 19.606-33.757 19.606z" fill="#C2BF26"/><path d="M206.741 71.297v-39.21l-33.759 19.605 33.759 19.605z" fill="#E3B32D"/><path d="M208.271 71.267v-39.21l33.758 19.605-33.758 19.605z" fill="#D78500"/><path d="M242.569 92.15V52.94l-33.754 19.605 33.754 19.606z" fill="#BD0912"/><path d="M208.271 113.062V73.851l33.758 19.606-33.758 19.605z" fill="#731C7B"/><path d="M242.569 133.958V94.746l-33.754 19.606 33.754 19.606z" fill="#514494"/><path d="M208.271 154.883v-39.209l33.758 19.602-33.758 19.607z" fill="#5593D0"/><path d="M206.741 154.913v-39.209l-33.759 19.603 33.759 19.606z" fill="#80B8AF"/><path d="M172.214 175.871v-39.212l33.757 19.605-33.757 19.607z" fill="#A7BE31"/><path d="M170.71 175.871v-39.212l-33.755 19.605 33.755 19.607z" fill="#BBC125"/><path d="M136.175 154.938v-39.211l33.757 19.607-33.757 19.604z" fill="#E2B232"/><path d="M134.726 154.943v-39.211l-33.757 19.606 33.757 19.605z" fill="#D68501"/><path d="M100.2 134.049V94.837l33.759 19.605-33.759 19.607z" fill="#C30514"/><path d="M134.726 113.047V73.836L100.969 93.44l33.757 19.607z" fill="#751B7F"/><path d="M100.2 92.151V52.94l33.759 19.606L100.2 92.15z" fill="#55438E"/><path d="M134.726 71.297v-39.21l-33.757 19.605 33.757 19.605z" fill="#4F96CE"/><path d="M136.175 71.29V32.08l33.757 19.603-33.757 19.608z" fill="#80B8AF"/><path d="M170.71 50.372V11.16l-33.756 19.606 33.756 19.606z" fill="#A6BE32"/><path d="M171.616 93.769l.004.002v-.005l33.749-19.6-33.749-19.6v-.006l-.005.003-.005-.003v.006l-33.744 19.6 33.744 19.6v.006l.006-.003z" fill="#DFDFDF"/><path d="M137.817 113.497l.006-.003 33.748 19.602v-39.21l.002-.001-33.756-19.609v39.221z" fill="#ABABAB"/><path d="M205.367 74.276v39.213l.002.001-.002.001v.006l-.005-.003-33.752 19.608V93.881l.003.002 33.754-19.607z" fill="#C4C4C4"/></symbol></svg>